<svg width="18" height="18" viewBox="0 0 18 18" fill="none" xmlns="http://www.w3.org/2000/svg">
<rect x="1" y="1" width="15.5909" height="16" rx="2" stroke="#5D5DF3" stroke-width="2"/>
<path d="M13.5 8.79549C13.5 11.3937 11.3937 13.5 8.79545 13.5C6.1972 13.5 4.0909 11.3937 4.0909 8.79549C4.0909 6.19724 6.1972 4.09094 8.79545 4.09094C11.3937 4.09094 13.5 6.19724 13.5 8.79549ZM5.63816 8.79549C5.63816 10.5392 7.05173 11.9528 8.79545 11.9528C10.5392 11.9528 11.9527 10.5392 11.9527 8.79549C11.9527 7.05177 10.5392 5.6382 8.79545 5.6382C7.05173 5.6382 5.63816 7.05177 5.63816 8.79549Z" fill="#5D5DF3"/>
<circle cx="13.5" cy="4.09092" r="1.22727" fill="#5D5DF3"/>
</svg>
