<svg width="174" height="112" viewBox="0 0 174 112" fill="none" xmlns="http://www.w3.org/2000/svg">
<path d="M17.9971 69.7015C21.4364 70.713 25.0029 71.2266 28.5879 71.2266H29.3282C32.1384 71.2266 34.9417 70.9491 37.6974 70.3979L39.6545 70.0065L44.23 69.0914L48.5005 67.8713L52.1609 66.6511L51.5508 68.1763L51.2458 69.3964L50.4506 69.7579C48.7484 70.5316 46.9704 71.1261 45.1451 71.5317V71.5317L41.7897 72.1417L39.6545 72.4468V72.4468C37.0174 72.8525 34.3465 72.9958 31.6811 72.8747L28.9783 72.7518L26.0911 72.5593C24.9687 72.4845 23.8574 72.291 22.7758 71.9819L22.6554 71.9475C20.9857 71.4705 19.4101 70.7108 17.9971 69.7015V69.7015V69.7015Z" fill="#A8C7FF"/>
<path d="M26.0018 54.5342C24.9419 53.8718 23.9889 53.052 23.1754 52.103V52.103C22.774 51.6347 22.4083 51.1369 22.0814 50.6138L21.982 50.4548C21.3611 49.4613 20.8601 48.3976 20.4896 47.2861L19.8271 45.2988L20.2858 46.1014C20.7927 46.9885 21.3679 47.8348 22.0061 48.6326L22.8548 49.6935C24.0755 51.2194 25.6128 52.4621 27.3606 53.336V53.336C28.4342 53.8728 29.5745 54.2641 30.7515 54.4995L32.0285 54.7549L33.9963 54.8861C35.7289 55.0016 37.4691 54.9157 39.182 54.6303V54.6303C41.1154 54.308 42.9984 53.734 44.7828 52.9229L45.6392 52.5337C47.7427 51.5775 49.7268 50.3778 51.5507 48.9592V48.9592L53.6859 50.4844V50.4844C51.467 52.5017 48.9046 54.1051 46.1202 55.2189L45.7551 55.365V55.365C43.3337 56.3739 40.7536 56.9484 38.1329 57.0624L35.0789 57.1952L34.0129 57.1285C31.5004 56.9715 29.0529 56.2654 26.8429 55.0599V55.0599L26.0018 54.5342Z" fill="#A8C7FF"/>
<path d="M25.0131 47.4341L24.098 45.909L23.1829 44.3838L25.6231 47.1291L26.0723 47.5141C27.1832 48.4663 28.4867 49.1674 29.8936 49.5694V49.5694V49.5694C31.3133 49.975 32.7712 50.2325 34.2439 50.3377L34.5592 50.3602C35.7178 50.4429 36.8808 50.4429 38.0394 50.3602L40.5698 50.1794V50.1794C43.1941 49.7757 45.73 48.926 48.0678 47.6672L48.5007 47.4341L50.6359 48.6543L48.1733 50.0395C46.5665 50.9433 44.8625 51.6622 43.0939 52.1824L42.9608 52.2215C41.3714 52.689 39.7364 52.9843 38.0839 53.1023L37.7366 53.1271C36.7798 53.1955 35.8193 53.1898 34.8634 53.1101L34.001 53.0383C33.0962 52.9629 32.2036 52.7796 31.3422 52.4925L31.3088 52.4814C30.3695 52.1683 29.4762 51.7314 28.6524 51.1822V51.1822C27.6562 50.518 26.7736 49.6976 26.0385 48.7525L25.0131 47.4341Z" fill="#A8C7FF"/>
<path d="M47.891 43.164L51.2464 44.0791L53.6962 44.6915C54.4995 44.8923 55.2714 45.2025 55.9903 45.6133V45.6133C56.6883 46.0122 57.3301 46.5024 57.8986 47.0709L58.8723 48.0445L58.2622 48.6546H54.6018H52.1615H50.8724C50.7172 48.6546 50.564 48.6184 50.4252 48.549L50.0263 48.3495L47.281 46.8244V46.8244C45.6564 45.809 44.1103 44.6732 42.6558 43.4264L40.5702 41.6388L38.5512 40.2928C38.0683 39.9709 37.5533 39.6999 37.0144 39.4844L36.9945 39.4764C36.5323 39.2915 36.0541 39.1494 35.5659 39.0518L34.9313 38.9248C34.827 38.904 34.721 38.8935 34.6147 38.8935H30.3019C29.997 38.8935 29.8772 38.498 30.1309 38.3288V38.3288C30.1756 38.2991 30.2117 38.2582 30.2356 38.2102L30.2907 38.1001C30.4215 37.8385 30.6888 37.6733 30.9812 37.6733H34.7316C35.3672 37.6733 35.9997 37.7619 36.6108 37.9365L37.8249 38.2834V38.2834C38.8389 38.689 39.8081 39.1988 40.7168 39.8047L41.1803 40.1136L44.2306 41.6388L47.891 43.164Z" fill="#00009B"/>
<path d="M51.6691 49.1398C51.5055 49.0308 51.6085 48.7759 51.8019 48.811L52.1119 48.8674C53.5654 49.1317 55.0397 49.2646 56.517 49.2646H57.3469L56.2424 50.1482C55.9652 50.3699 55.6434 50.5293 55.299 50.6154L55.2426 50.6295C54.8239 50.7342 54.3841 50.7173 53.9747 50.5808V50.5808C53.7834 50.5171 53.6014 50.4281 53.4336 50.3162L51.6691 49.1398Z" fill="#00009B"/>
<path d="M26.3899 40.4406C26.116 40.4275 25.8831 40.2366 25.8166 39.9706V39.9706C25.7185 39.5784 26.0151 39.1985 26.4194 39.1985H30.5041H33.4369C34.5221 39.1985 35.5972 39.4055 36.6048 39.8086V39.8086L38.435 40.7237L39.9601 41.6388L42.3309 43.4169C42.3766 43.4511 42.4137 43.4956 42.4393 43.5466L42.4575 43.5831C42.5714 43.811 42.4057 44.079 42.151 44.079V44.079C42.1142 44.079 42.0776 44.0731 42.0426 44.0614L40.2652 43.469L40.1517 43.4203C38.8067 42.8439 37.5173 42.1454 36.2997 41.3337V41.3337V41.3337C35.703 40.9359 35.002 40.7237 34.2848 40.7237H32.3343L26.3899 40.4406Z" fill="#00009B"/>
<path d="M23.6099 37.541C24.1381 37.6291 24.6727 37.6733 25.2081 37.6733H29.2841H29.5638C29.7983 37.6733 29.9157 37.9568 29.7499 38.1226V38.1226C29.2564 38.6162 28.5869 38.8935 27.8889 38.8935H27.0521C26.5185 38.8935 25.9968 39.0514 25.5528 39.3474V39.3474C25.3971 39.4512 25.2311 39.5386 25.0574 39.608L24.9342 39.6573C24.191 39.9546 23.3755 40.0207 22.5942 39.8471L21.4535 39.5936C21.1843 39.5338 20.9235 39.4412 20.6768 39.3178V39.3178C20.1217 39.0403 19.654 38.615 19.3251 38.0887L18.9641 37.5111C18.5283 36.8138 17.949 36.2173 17.2648 35.7612L15.5576 34.623L15.2445 34.3882C14.6449 33.9385 14.1337 33.3819 13.7365 32.7464L13.2973 32.0436C12.9803 31.5365 12.8123 30.9505 12.8123 30.3525V30.3525V30.3283C12.8123 30.0592 13.0955 29.8841 13.3363 30.0045L13.3491 30.0109C13.3971 30.0348 13.438 30.0709 13.4677 30.1156L13.5781 30.2812C13.7142 30.4853 14.0324 30.389 14.0324 30.1436V30.1436C14.0324 29.9593 14.2264 29.8394 14.3912 29.9219L14.5648 30.0086C14.6159 30.0342 14.6603 30.0713 14.6946 30.1169L15.3046 30.9304C15.4208 31.0853 15.6595 31.0638 15.7461 30.8906V30.8906C15.8104 30.7619 15.9669 30.7097 16.0956 30.774L16.3201 30.8863C16.4192 30.9358 16.4994 31.0161 16.5489 31.1151L16.7241 31.4654C16.7598 31.5368 16.7904 31.6106 16.8156 31.6864L16.8835 31.8899C17.0157 32.2867 17.2003 32.6641 17.4323 33.0121L17.6928 33.4028V33.4028C18.0974 34.0097 18.5874 34.5551 19.1478 35.022L20.1331 35.8431L20.2873 35.9974C20.7893 36.4994 21.3881 36.8942 22.0472 37.1578V37.1578C22.397 37.2977 22.7608 37.3995 23.1323 37.4614L23.6099 37.541Z" fill="#00009B"/>
<path d="M12.129 33.4887C12.0148 33.1463 12.2697 32.7927 12.6306 32.7927V32.7927C12.7482 32.7927 12.8625 32.8319 12.9553 32.9041L15.5574 34.928L16.0575 35.228C16.7383 35.6365 17.3664 36.1269 17.9278 36.6883V36.6883C18.38 37.1405 18.7864 37.6362 19.1411 38.1683L19.2178 38.2833L19.5228 38.8934V38.8934C19.663 39.1737 19.4592 39.5035 19.1458 39.5035H18.9128H17.9977V39.5035C17.401 39.5035 16.8176 39.6801 16.3211 40.0111L16.1675 40.1135L15.3703 40.645C15.2934 40.6962 15.203 40.7236 15.1106 40.7236V40.7236C14.8519 40.7236 14.6423 40.514 14.6423 40.2553V40.1135C14.6423 39.9215 14.7327 39.7407 14.8863 39.6255L15.7912 38.9468C15.8386 38.9112 15.8834 38.8724 15.9253 38.8305V38.8305C16.2607 38.4952 16.3778 37.9992 16.2278 37.5493L16.1989 37.4626C16.178 37.3998 16.1526 37.3385 16.123 37.2793L16.0746 37.1824C15.934 36.9014 15.7492 36.6449 15.527 36.4228L15.0139 35.9096C14.7665 35.6622 14.5018 35.4327 14.2219 35.2227L12.3438 33.8142C12.2515 33.7449 12.1825 33.6492 12.146 33.5397L12.129 33.4887Z" fill="#00009B"/>
<path d="M32.0291 41.0286H33.3429C33.6866 41.0286 34.0296 41.057 34.3686 41.1135L34.9471 41.2099C35.4365 41.2914 35.9029 41.4759 36.3157 41.7511L36.5805 41.9276C36.5965 41.9383 36.6114 41.9505 36.6251 41.9641V41.9641C36.8206 42.1596 36.6607 42.4922 36.386 42.4617L34.4694 42.2487L32.3341 41.9437L30.7799 41.6846C30.6206 41.6581 30.5039 41.5203 30.5039 41.3588V41.3588C30.5039 41.1764 30.6518 41.0286 30.8342 41.0286H32.0291Z" fill="#00009B"/>
<path d="M42.1937 31.8479C42.3312 31.6646 42.4816 31.4912 42.6436 31.3292L43.0165 30.9563C43.2152 30.7575 43.4331 30.5789 43.667 30.423L43.7213 30.3868C43.9574 30.2294 44.2768 30.3722 44.317 30.6531V30.6531C44.4572 31.6348 44.2138 32.6329 43.6374 33.4398L43.4622 33.6852C43.1653 34.1009 42.9726 34.5818 42.9003 35.0875L42.882 35.216C42.7692 36.0054 42.9878 36.8062 43.4859 37.4289V37.4289C43.7747 37.7899 44.1459 38.0762 44.5683 38.264L45.6331 38.7372C46.3211 39.043 47.0503 39.2458 47.7974 39.3392L48.5802 39.4371C48.9315 39.481 49.2728 39.5843 49.5894 39.7426L50.0904 39.9931C50.2481 40.072 50.3826 40.1907 50.4804 40.3374V40.3374C50.7483 40.7393 50.6953 41.2744 50.3538 41.616L50.1247 41.8451C50.0591 41.9107 49.9872 41.9696 49.91 42.0211L49.2162 42.4836C49.1632 42.5189 49.0911 42.4942 49.071 42.4337L48.9061 41.9392C48.8486 41.7668 48.9267 41.5783 49.0893 41.497V41.497C49.2697 41.4068 49.3429 41.1874 49.2527 41.0069L49.111 40.7236V40.7236C48.924 40.3497 48.5419 40.1135 48.1239 40.1135H44.8313C44.6343 40.1135 44.4376 40.0995 44.2426 40.0717L43.3039 39.9376C42.7289 39.8554 42.2161 39.5322 41.8938 39.0489L41.7783 38.8756C41.4128 38.3273 40.7648 38.0376 40.1125 38.1308V38.1308C39.4601 38.224 38.8122 37.9343 38.4466 37.386L38.3744 37.2776C38.0345 36.7677 37.9938 36.1148 38.2679 35.5668L38.2795 35.5436C38.5616 34.9793 39.1383 34.6229 39.7692 34.6229V34.6229C40.5833 34.6229 41.2782 34.0343 41.412 33.2312L41.4169 33.2017C41.4617 32.933 41.5705 32.6789 41.7339 32.4609L42.1937 31.8479Z" fill="#00009B"/>
<path d="M45.4141 29.303C45.5945 29.2128 45.813 29.3033 45.8768 29.4947L45.9263 29.6433C46.0155 29.9108 46.061 30.1909 46.061 30.4729V30.4729C46.061 30.9909 46.2143 31.4973 46.5016 31.9283L47.2811 33.0975L47.9514 33.9912C48.1103 34.2031 48.1962 34.4608 48.1962 34.7257V34.7257C48.1962 35.0504 48.0672 35.3617 47.8377 35.5913L47.5733 35.8557C47.3821 36.0469 47.2464 36.2868 47.1808 36.5491V36.5491C47.0539 37.0566 47.2024 37.5943 47.5723 37.9643L47.5946 37.9865C47.788 38.1799 48.0343 38.3117 48.3025 38.3654L49.1172 38.5283C49.2912 38.5631 49.4164 38.7158 49.4164 38.8932V38.8932V38.8932C49.4164 39.0529 49.273 39.1743 49.1155 39.1481L47.5862 38.8932L46.477 38.6714C46.2002 38.616 45.9291 38.5354 45.667 38.4306L45.3139 38.2893C44.8039 38.0853 44.3554 37.7526 44.0123 37.3236L43.9019 37.1857C43.5224 36.7113 43.3157 36.1219 43.3157 35.5145V35.5145C43.3157 34.9356 43.5034 34.3724 43.8507 33.9093L43.9414 33.7884C44.1331 33.5328 44.2823 33.2481 44.3833 32.945V32.945C44.4843 32.642 44.5358 32.3246 44.5358 32.0052V30.5412C44.5358 30.1345 44.7272 29.7516 45.0523 29.5074V29.5074C45.1146 29.4606 45.1809 29.4196 45.2505 29.3848L45.4141 29.303Z" fill="#00009B"/>
<path d="M50.28 39.6726C50.1214 39.5669 50.0262 39.3889 50.0262 39.1983V39.1983V39.1983C50.0262 39.0434 50.1718 38.9297 50.3221 38.9673L51.2463 39.1983V39.1983C52.0516 39.3997 52.8085 39.7599 53.4726 40.258L53.6866 40.4185V40.4185C54.2922 40.8222 54.9626 41.1188 55.6687 41.2953L55.8218 41.3336L56.1475 41.4421C56.5379 41.5723 56.9048 41.7645 57.234 42.0114L57.6134 42.296C57.8394 42.4655 58.0229 42.6853 58.1492 42.938V42.938C58.2047 43.0491 58.1351 43.1819 58.0122 43.1995L56.1269 43.4688L55.8284 43.5115C54.6111 43.6854 53.3743 43.671 52.1614 43.4688V43.4688L49.919 43.2446C49.6474 43.2174 49.5596 42.8648 49.7867 42.7134V42.7134C49.946 42.6072 50.0944 42.4855 50.2297 42.3502L50.5053 42.0746C50.5924 41.9875 50.6707 41.892 50.739 41.7896L50.9319 41.5002C51.1303 41.2026 51.1802 40.8301 51.0671 40.4907V40.4907C50.9855 40.2462 50.8249 40.0358 50.6104 39.8928L50.28 39.6726Z" fill="#00009B"/>
<path d="M46.3655 29.4485C46.3655 29.2737 46.5071 29.1321 46.6819 29.1321H47.1814C47.4472 29.1321 47.7094 29.194 47.9472 29.3128L47.9785 29.3285C48.1223 29.4004 48.2537 29.4951 48.3674 29.6088V29.6088C48.6481 29.8895 48.8058 30.2702 48.8058 30.6671V30.7526C48.8058 30.8919 48.7887 31.0306 48.7549 31.1657L48.5332 32.0527C48.5116 32.1388 48.5007 32.2273 48.5007 32.3162V32.9712C48.5007 33.2094 48.3076 33.4026 48.0693 33.4026V33.4026C47.9549 33.4026 47.8452 33.3571 47.7643 33.2762L47.4523 32.9642C47.3386 32.8505 47.2439 32.7191 47.172 32.5753L47.1563 32.544C47.0374 32.3062 46.9755 32.044 46.9755 31.7782V31.5122C46.9755 31.1536 46.8694 30.8031 46.6705 30.5047V30.5047C46.4716 30.2064 46.3655 29.8558 46.3655 29.4973V29.4485Z" fill="#00009B"/>
<path d="M48.8313 33.9877C49.0092 33.8098 49.2552 33.7174 49.5062 33.7341L53.1368 33.9761C53.4971 34.0002 53.8448 34.1182 54.1453 34.3185L54.4313 34.5092C54.543 34.5837 54.6334 34.6861 54.6935 34.8062V34.8062C54.8243 35.0677 54.796 35.3807 54.6206 35.6146L54.1049 36.3023C54.0296 36.4026 53.9635 36.5095 53.9074 36.6217V36.6217C53.7623 36.912 53.6867 37.2321 53.6867 37.5567V37.6732V38.5163C53.6867 38.7621 53.7595 39.0025 53.8959 39.2071L54.1852 39.6411C54.2542 39.7446 54.2625 39.8771 54.2068 39.9884V39.9884C54.101 40.2 53.819 40.2458 53.6517 40.0785L52.7398 39.1666C52.5617 38.9884 52.3348 38.867 52.0877 38.8176L50.9414 38.5883L50.38 38.4012C50.1457 38.3231 49.9004 38.2833 49.6535 38.2833V38.2833C49.2969 38.2833 48.9451 38.2002 48.6262 38.0407L47.9988 37.7271C47.9275 37.6914 47.8623 37.6444 47.8059 37.588V37.588C47.516 37.2981 47.516 36.8281 47.8059 36.5382L47.8361 36.508C47.8727 36.4715 47.9127 36.4386 47.9558 36.41L48.0869 36.3225C48.5221 36.0324 48.7392 35.5082 48.6366 34.9953L48.5927 34.7757C48.5355 34.4896 48.625 34.1939 48.8313 33.9877V33.9877Z" fill="#00009B"/>
<path d="M48.8062 32.8233C48.8062 32.3972 48.8483 31.972 48.9318 31.5541L49.1112 30.6573L49.256 30.223C49.3464 29.9517 49.6305 29.7958 49.9079 29.8651L49.9746 29.8818C50.4145 29.9918 50.8409 30.1495 51.2464 30.3523V30.3523L51.7201 30.5891C51.8098 30.634 51.9087 30.6573 52.009 30.6573V30.6573C52.1093 30.6573 52.2082 30.6339 52.2979 30.5891L52.7636 30.3563C52.7689 30.3536 52.7747 30.3523 52.7805 30.3523V30.3523C52.9546 30.3523 53.1062 30.4707 53.1484 30.6395L53.3018 31.2529C53.3541 31.462 53.4622 31.6529 53.6145 31.8053L53.8311 32.0218C53.9379 32.1287 54.0551 32.2247 54.1808 32.3085L54.8201 32.7348C54.8778 32.7732 54.9315 32.8172 54.9805 32.8662V32.8662C55.3008 33.1866 55.3803 33.6759 55.1777 34.0811L55.0053 34.4258C54.9569 34.5227 54.8277 34.5437 54.7511 34.4671L54.4932 34.2092C54.3631 34.079 54.2128 33.9707 54.0482 33.8884V33.8884C53.8105 33.7695 53.5483 33.7077 53.2825 33.7077H51.5515L49.3819 33.4666C49.0541 33.4302 48.8062 33.1531 48.8062 32.8233V32.8233Z" fill="#00009B"/>
<path d="M49.7213 24.8617L50.2093 25.6425C50.8871 26.727 51.2465 27.9801 51.2465 29.259V29.259C51.2465 29.512 51.0193 29.7044 50.7697 29.6628L49.4162 29.4372L47.9437 29.0165C47.5791 28.9123 47.3701 28.5302 47.479 28.1671V28.1671C47.9514 26.5924 48.0757 24.9339 47.8432 23.3064L47.7669 22.7721C47.7249 22.4783 48.1131 22.3346 48.2725 22.5851L49.7213 24.8617Z" fill="#00009B"/>
<path d="M45.0653 17.501C45.1176 17.5272 45.161 17.5682 45.19 17.619L46.3656 19.6764L46.9757 20.8965V20.8965C47.3787 21.904 47.5857 22.9792 47.5857 24.0643V24.5569V25.3044C47.5857 25.8216 47.5347 26.3375 47.4332 26.8447L47.2859 27.5811C47.2825 27.5985 47.2807 27.6162 47.2807 27.6339V27.6339C47.2807 27.9 46.9355 28.0046 46.7879 27.7831L46.0606 26.6921L45.8504 26.2718C45.585 25.741 45.3915 25.1771 45.2751 24.5952V24.5952C45.1889 24.164 45.1455 23.7254 45.1455 23.2857V20.7386C45.1455 20.6407 45.1367 20.543 45.1192 20.4467L44.6414 17.8189C44.5977 17.5788 44.8469 17.3919 45.0653 17.501V17.501Z" fill="#00009B"/>
<path d="M42.0952 16.9309L41.4851 16.3208L40.875 15.7108V15.7108C40.471 15.3067 40.1347 14.8401 39.8791 14.329L39.6549 13.8806L39.0448 12.6604L38 11L38.7398 11.1353L39.4062 11.6683C39.9753 12.1236 40.4708 12.6641 40.875 13.2705V13.2705L40.8968 13.314C41.0853 13.691 41.3073 14.0502 41.5601 14.3873L41.6659 14.5284C41.951 14.9084 42.2829 15.2509 42.6538 15.5476L42.6719 15.562C43.2967 16.0619 43.8057 16.6915 44.1636 17.4073V17.4073C44.4101 17.9003 44.5815 18.4275 44.6722 18.9713L44.7877 19.6643C44.8228 19.8752 44.8405 20.0887 44.8405 20.3025V20.3025C44.8405 20.5429 44.5207 20.6257 44.404 20.4156L43.7214 19.187C43.4512 18.7006 43.1406 18.2377 42.793 17.8032L42.0952 16.9309Z" fill="#00009B"/>
<path d="M55.056 44.7708C54.7216 44.6492 54.7385 44.1706 55.0806 44.0728L56.1272 43.7738L57.3777 43.5951C57.9646 43.5113 58.5603 43.5113 59.1471 43.5951L59.3038 43.6175C60.0257 43.7207 60.7198 43.9671 61.3452 44.3423V44.3423C61.7288 44.5725 62.0828 44.8489 62.3992 45.1652L62.5329 45.299L59.4826 47.7392L59.3261 47.7001C58.651 47.5313 58.0833 47.076 57.7721 46.4536V46.4536C57.4993 45.908 57.0278 45.4878 56.4546 45.2794L55.056 44.7708Z" fill="#00009B"/>
<path d="M58.1014 41.9391C57.8129 41.7742 57.9299 41.3337 58.2621 41.3337V41.3337V41.3337C59.0681 41.3337 59.8668 41.4875 60.6151 41.7869L61.0074 41.9438L62.5326 43.469V43.469C62.7279 43.6643 62.8376 43.9292 62.8376 44.2054V44.7343C62.8376 44.8453 62.7138 44.9116 62.6214 44.85L59.1772 42.5539L58.1014 41.9391Z" fill="#00009B"/>
<path d="M61.0065 52.3149L62.5317 51.0947L63.7029 52.0986C64.3408 52.6454 64.88 53.2978 65.2969 54.0274V54.0274C65.6878 54.7114 65.9658 55.454 66.1204 56.2266L66.1921 56.5853L66.2383 56.9088C66.4106 58.1151 66.4971 59.3322 66.4971 60.5508V60.5508V61.1238C66.4971 61.9399 66.2325 62.7339 65.7428 63.3867V63.3867C65.6358 63.5295 65.5187 63.6645 65.3925 63.7907L65.1245 64.0587C64.8198 64.3633 64.4939 64.646 64.1493 64.9045L62.2267 66.3464H60.4685C60.1551 66.3464 59.9513 66.0167 60.0914 65.7364V65.7364L61.6166 63.9062V63.9062C62.6167 62.506 63.2415 60.8731 63.4315 59.163L63.4468 59.0256V58.6316C63.4468 57.2859 63.1335 55.9587 62.5317 54.7551V54.7551L61.0065 52.3149Z" fill="#00009B"/>
<path d="M64.9724 49.8745L66.7319 51.8853C66.9814 52.1704 67.1934 52.4863 67.3629 52.8253V52.8253C67.5976 53.2947 67.7474 53.8019 67.8054 54.3235L67.8893 55.0788C67.9779 55.8759 67.9559 56.6815 67.8241 57.4726L67.7177 58.1104L67.4666 59.3661C67.4353 59.5228 67.2977 59.6356 67.1379 59.6356V59.6356C66.9527 59.6356 66.8026 59.4855 66.8026 59.3004V57.9453C66.8026 57.8522 66.7949 57.7592 66.7796 57.6674L66.5945 56.5566C66.53 56.1696 66.4353 55.7882 66.3112 55.416V55.416C66.031 54.5753 65.6042 53.7908 65.0506 53.0988L64.6674 52.6198L63.4473 51.3997L64.9724 49.8745Z" fill="#00009B"/>
<path d="M58.8716 54.7552L61.0068 53.23L61.8642 54.7305C62.1054 55.1526 62.3044 55.5975 62.4581 56.0588V56.0588C62.7091 56.8116 62.837 57.6 62.837 58.3936V59.3335C62.837 59.9387 62.7527 60.541 62.5864 61.123V61.123C62.3491 61.9534 61.9491 62.7283 61.4096 63.4027L61.0068 63.9062L59.9451 65.2333C59.8403 65.3643 59.7595 65.5128 59.7065 65.6719V65.6719C59.5649 66.0966 59.2317 66.4297 58.8071 66.5713L58.5665 66.6515L58.4468 66.6914C57.9181 66.8676 57.4103 67.1012 56.9325 67.3879V67.3879C56.397 67.7092 55.903 68.0949 55.4614 68.5365L54.9061 69.0918V69.0918C54.3 69.6979 53.7956 70.3977 53.4123 71.1644L53.3809 71.227L53.0759 71.8371L51.2457 72.4471L51.1221 71.3344C51.003 70.2626 51.1502 69.178 51.5507 68.1767V68.1767L51.7128 67.6905C52.0089 66.8023 52.4684 65.9773 53.0678 65.2581V65.2581C53.4782 64.7655 53.9501 64.3276 54.4718 63.955L54.7418 63.7621C55.4583 63.2503 56.2388 62.8345 57.0633 62.5253L58.2615 62.076L58.9161 61.7487C59.288 61.5627 59.6115 61.2927 59.861 60.96V60.96C60.2088 60.4964 60.3967 59.9325 60.3967 59.3529V58.8172C60.3967 58.1519 60.2418 57.4957 59.9443 56.9006L58.8716 54.7552Z" fill="#00009B"/>
<path d="M58.6919 59.0077C58.8113 58.4109 58.8714 57.8038 58.8714 57.1952V57.1952V56.382C58.8714 56.2318 59.053 56.1566 59.1591 56.2628V56.2628C59.3726 56.4763 59.5503 56.7228 59.6853 56.9929L59.73 57.0822C59.9678 57.5577 60.0915 58.0821 60.0915 58.6137V58.7684C60.0915 59.3358 59.9372 59.8927 59.6453 60.3793V60.3793C59.3392 60.8894 58.8938 61.302 58.3616 61.5681V61.5681C58.212 61.6429 58.0467 61.4995 58.0996 61.3408L58.2613 60.8556L58.5664 59.6355L58.6919 59.0077Z" fill="#00009B"/>
<path d="M55.9366 68.6714C56.2652 68.3428 56.6328 68.0558 57.0313 67.8167V67.8167C57.6426 67.4499 58.3176 67.2014 59.0209 67.0842L59.2311 67.0491C59.6009 66.9875 59.9751 66.9565 60.35 66.9565H61.6169L58.1483 69.558C58.0209 69.6536 57.8825 69.7336 57.7362 69.7963L53.686 71.5321L54.3728 70.5019C54.7275 69.9698 55.1339 69.4741 55.5861 69.022L55.9366 68.6714Z" fill="#00009B"/>
<path d="M56.7368 76.7176L61.6173 73.6672L61.3123 77.6327L60.7022 80.9881L60.0921 83.1233L58.2619 83.7334L56.1267 84.6485L53.9915 84.9535L54.2965 84.3434L54.9066 83.1233L55.5166 81.5981L56.1267 80.073L56.4016 79.1109C56.6239 78.3326 56.7368 77.5271 56.7368 76.7176V76.7176Z" fill="#00009B"/>
<path d="M53.0764 78.2428L56.1268 77.0227V77.0227C55.9243 78.44 55.5361 79.8245 54.9721 81.1405L54.9066 81.2932L54.2966 82.8184L53.6543 84.1029C53.5419 84.3277 53.221 84.3277 53.1086 84.1029V84.1029C53.0874 84.0605 53.0764 84.0138 53.0764 83.9665V82.8184V80.6831V78.2428Z" fill="#00009B"/>
<path d="M62.3674 73.8322C62.6181 73.5815 63.031 73.6044 63.2524 73.8812L65.2776 76.4126L67.4128 78.5479L66.8028 79.158L65.5826 80.0731V80.0731C64.7721 80.6809 63.8919 81.1899 62.9606 81.589L62.2273 81.9033L61.9222 80.6831V80.6831C61.7202 80.077 61.6172 79.4423 61.6172 78.8034V78.7074C61.6172 78.3981 61.6391 78.0892 61.6829 77.783L62.1992 74.1686C62.2174 74.0412 62.2764 73.9232 62.3674 73.8322V73.8322Z" fill="#00009B"/>
<path d="M64.3625 71.2271L66.4977 73.6673L68.2309 75.4005C68.6214 75.791 68.6214 76.4242 68.2309 76.8147L67.8636 77.182C67.4546 77.591 66.7848 77.5687 66.4039 77.1334L64.9725 75.4975L64.2525 74.6335C63.7226 73.9976 63.3431 73.2502 63.1423 72.4472V72.4472L64.3625 71.2271Z" fill="#00009B"/>
<path d="M66.6652 73.2416C66.5713 73.1384 66.5751 72.9797 66.6737 72.881V72.881C66.7512 72.8036 66.8686 72.7827 66.968 72.8286L70.768 74.5824L69.5479 76.4126L66.6652 73.2416Z" fill="#00009B"/>
<path d="M57.3464 69.7017L60.7018 67.5665L63.4471 65.4313L64.4355 64.5664C65.3862 63.7345 66.0979 62.6643 66.4974 61.4658V61.4658L67.7176 62.686V62.686C68.1082 63.0766 68.3276 63.6064 68.3276 64.1588V64.569C68.3276 64.9375 68.2614 65.303 68.132 65.648L67.7383 66.6977C67.5217 67.2755 67.2478 67.8301 66.9208 68.3533L66.6985 68.7089C66.1595 69.5714 65.5243 70.3698 64.8051 71.089L64.2557 71.6385C63.3122 72.5819 62.2779 73.4299 61.1677 74.17L60.2023 74.8136C58.9102 75.675 57.5569 76.4412 56.1534 77.106L55.6395 77.3495C53.5278 78.3497 51.3321 79.162 49.0779 79.7768L48.1949 80.0176C46.5706 80.4606 44.9156 80.7817 43.2435 80.9785V80.9785C41.4637 81.1878 39.67 81.2556 37.8794 81.181L33.2487 80.988H29.8933L35.3839 74.8873H36.419C38.5732 74.8873 40.7247 74.7344 42.8573 74.4298L43.0209 74.4064C45.0445 74.1173 47.0653 73.6791 49.0276 73.1067V73.1067C51.9021 72.2683 54.7101 71.1213 57.3464 69.7017V69.7017Z" fill="#A8C7FF"/>
<path d="M61.0069 41.9436H63.0943C63.7275 41.9436 64.3521 42.091 64.9185 42.3743L64.9681 42.3991C65.5706 42.7003 66.0839 43.1535 66.4575 43.7139V43.7139C66.8814 44.3497 67.1076 45.0966 67.1076 45.8607V45.9758C67.1076 46.9211 66.7925 47.8393 66.2122 48.5854L65.5301 49.4624C65.1596 49.9387 64.7329 50.3686 64.2592 50.7425L59.1767 54.755L49.7206 60.8557L43.925 63.601L37.8243 65.7363V65.7363C36.4048 66.1418 34.9463 66.3959 33.4733 66.4941L31.1135 66.6514H30.8755C29.0062 66.6514 27.1426 66.4468 25.3179 66.0413V66.0413V66.0413C23.4967 65.6366 21.7415 64.9779 20.1037 64.0846L19.2172 63.601L18.4708 63.0785C16.9409 62.0076 15.5519 60.7484 14.3366 59.3306V59.3306V59.3306C12.9207 57.51 11.7768 55.4934 10.9408 53.3438L10.0662 51.0946L12.4929 55.0656C13.1098 56.0751 13.8443 57.008 14.6808 57.8445V57.8445C15.2638 58.4275 15.8939 58.9613 16.5648 59.4405L17.692 60.2457L18.6537 60.8467C19.6366 61.461 20.6828 61.9674 21.7743 62.3573V62.3573C23.5137 62.9785 25.3469 63.296 27.1938 63.296H28.6732L30.0646 63.1414C32.7877 62.8388 35.4651 62.2127 38.0401 61.2764V61.2764C39.9262 60.5905 41.7488 59.7413 43.4871 58.7384L48.8055 55.6701L62.2651 45.5007C62.4407 45.368 62.5833 45.1966 62.6817 44.9997V44.9997C62.9566 44.4498 62.8489 43.7856 62.4141 43.3508L61.0069 41.9436Z" fill="#A8C7FF"/>
<path d="M10.1814 27.3887C13.2716 22.4319 17.4345 18.2315 22.3636 15.0972C27.2926 11.9628 32.8621 9.97433 38.6617 9.27824C44.4612 8.58215 50.3431 9.19618 55.8738 11.0751C61.4046 12.954 66.4433 16.0499 70.6187 20.1347C74.7941 24.2195 77.9998 29.1891 79.9995 34.6774C81.9993 40.1656 82.7422 46.0326 82.1734 51.846C81.6047 57.6594 79.7388 63.2712 76.7133 68.2678C73.6878 73.2644 69.5798 77.5185 64.6919 80.7166C69.2772 77.7165 72.4173 71.7029 75.2555 67.0156C78.0937 62.3284 79.234 57.0641 79.7675 51.6106C80.301 46.1571 78.994 40.6534 77.1181 35.505C75.2422 30.3566 72.845 26.3047 68.9282 22.4728C65.0113 18.6409 60.2845 15.1266 55.0962 13.3641C49.9079 11.6015 44.3902 10.4154 38.9497 11.0684C33.5093 11.7214 28.2846 12.9767 23.6608 15.917C19.0369 18.8572 13.0802 22.7388 10.1814 27.3887Z" fill="#A8C7FF"/>
<path d="M65.2774 80.0732C57.544 85.4767 46.5521 88.6021 37.1974 87.3805C27.8427 86.159 19.2821 81.4857 13.1955 74.2776C7.10886 67.0695 3.93565 57.847 4.29852 48.4199C4.66139 38.9927 8.53412 30.0414 15.1568 23.3225C9.02808 29.5403 6.84328 39.8043 6.50748 48.5284C6.17168 57.2524 9.71828 65.7871 15.3509 72.4575C20.9835 79.128 28.9056 84.0628 37.5627 85.1932C46.2197 86.3236 58.1208 85.0737 65.2774 80.0732Z" fill="#00009B"/>
<path d="M74.109 73.5173C70.9686 78.3899 66.8132 82.5269 61.9267 85.6457C57.0402 88.7644 51.5379 90.7912 45.7959 91.5876C40.054 92.3839 34.2078 91.931 28.6569 90.2599C23.1061 88.5887 17.9816 85.7387 13.6337 81.9047C9.28582 78.0706 5.81706 73.3429 3.46458 68.0448C1.11209 62.7467 -0.0686433 57.0031 0.00308259 51.2066C0.0748085 45.4101 1.39731 39.6975 3.88017 34.4592C6.36303 29.2209 9.94771 24.5805 14.3892 20.8552C10.3065 24.2796 7.27118 31.037 4.98887 35.8522C2.70656 40.6674 2.10095 45.9186 2.03502 51.2468C1.96909 56.5751 4.27459 61.8548 6.43705 66.725C8.59952 71.5951 11.7881 75.9409 15.7848 79.4653C19.7815 82.9897 24.4921 85.6095 29.5945 87.1457C34.697 88.6818 40.681 89.7082 45.9592 88.9761C51.2374 88.2441 56.2952 87.6011 60.787 84.7343C65.2788 81.8675 71.2223 77.9963 74.109 73.5173Z" fill="#A8C7FF"/>
<path d="M39 12.5L41.9783 16.7323C42.0216 16.7939 42.1175 16.7746 42.1336 16.701V16.701C42.171 16.5295 42.1554 16.3507 42.0888 16.1882L41.4434 14.6141C41.2482 14.1382 40.9958 13.6878 40.6916 13.2731L39.9229 12.2247L39.7276 11.999C39.2735 11.4741 39.1219 10.7522 39.3264 10.0889L39.4231 9.77523C39.5903 9.23277 39.4341 8.64242 39.0205 8.25366V8.25366C38.8235 8.06854 38.5798 7.94061 38.3156 7.88364L37.2343 7.65049C36.4766 7.48711 35.7622 7.1645 35.1387 6.70406L33.5011 5.49483L33.1144 5.24008C32.5544 4.87127 31.931 4.60956 31.2755 4.46824L30.4471 4.28961C29.9165 4.1752 29.3637 4.22418 28.8614 4.4301V4.4301V4.4301C28.6208 4.52878 28.5627 4.84322 28.7522 5.02135L28.7766 5.04424C28.8155 5.08076 28.8631 5.10668 28.9148 5.11951L29.1232 5.17112C29.3492 5.22711 29.3721 5.53943 29.1567 5.62778V5.62778C28.9945 5.69426 28.9554 5.90614 29.0831 6.02616L29.2355 6.1694C29.2771 6.20853 29.3271 6.23764 29.3817 6.25452L30.3022 6.5391C30.4803 6.59417 30.5466 6.81169 30.4294 6.95673V6.95673C30.3427 7.06406 30.3534 7.22009 30.4539 7.31458L30.6354 7.48509C30.719 7.56366 30.8257 7.6131 30.9397 7.62604L31.2769 7.66431C31.3548 7.67314 31.4332 7.67608 31.5115 7.67308L31.7032 7.66575C32.0862 7.6511 32.4695 7.69044 32.8416 7.78261L33.2831 7.89198V7.89198C33.9479 8.05665 34.5853 8.31692 35.1754 8.66464L36.265 9.30677V9.30677C36.9911 9.65125 37.5866 10.2208 37.9632 10.9307L38 11L39 12.5Z" fill="#00009B"/>
<path d="M31.2945 2.71228C30.9427 2.72574 30.7115 3.08502 30.8451 3.41073L30.8541 3.43263C30.8952 3.53285 30.9664 3.61785 31.0578 3.67589L33.7578 5.38909L34.2359 5.77694C34.8149 6.24669 35.4479 6.64561 36.1215 6.96522V6.96522C36.6865 7.23329 37.277 7.44409 37.884 7.59445L37.9736 7.61665L38.6034 7.68812V7.68812C38.8867 7.72027 39.1009 7.43701 38.9927 7.17318L38.886 6.91289L38.5388 6.0662V6.0662C38.3117 5.51237 38.241 4.90685 38.3343 4.31559L38.3585 4.16205L38.5046 3.23634C38.5182 3.15016 38.5079 3.06191 38.4748 2.98119V2.98119C38.3749 2.7376 38.0964 2.6211 37.8529 2.72098L37.7893 2.74704C37.6226 2.81539 37.5004 2.96168 37.4628 3.1379L37.2147 4.30135L37.2052 4.32733C37.0401 4.78046 36.6172 5.08862 36.1352 5.10705V5.10705C36.0754 5.10934 36.0155 5.1071 35.956 5.10035L35.8485 5.08814C35.5619 5.05562 35.2826 4.97593 35.0221 4.8523L33.9247 4.33163L31.5925 2.79545C31.5043 2.73732 31.4001 2.70825 31.2945 2.71228V2.71228Z" fill="#00009B"/>
<path d="M42.0951 12.0503L42.7867 12.742C43.1367 13.092 43.4281 13.4962 43.6494 13.9389V13.9389C43.8325 14.3051 43.9659 14.694 44.0462 15.0954L44.2303 16.0157V16.0157C44.2303 16.2536 43.9502 16.3807 43.7712 16.2241L42.5873 15.1882C42.0632 14.7296 41.6552 14.1535 41.3966 13.507V13.507C41.2528 13.1475 41.0623 12.8085 40.83 12.4988L40.3142 11.8111C40.2814 11.7673 40.2454 11.7258 40.2066 11.6871L39.7528 11.2332C39.6892 11.1696 39.6482 11.087 39.6361 10.9979V10.9979C39.5863 10.6329 40.0046 10.3916 40.2957 10.6174L40.5699 10.8302L42.0951 12.0503Z" fill="#00009B"/>
<path d="M95.462 81.474C95.822 81.474 96.002 81.642 96.002 81.978C96.002 82.326 95.822 82.5 95.462 82.5H83.402C83.174 82.5 83.03 82.446 82.97 82.338C82.91 82.254 82.88 82.134 82.88 81.978V65.292C82.88 64.956 83.054 64.788 83.402 64.788C83.738 64.788 83.906 64.956 83.906 65.292V81.474H95.462ZM100.109 65.436C100.109 65.088 100.295 64.914 100.667 64.914C101.003 64.914 101.171 65.088 101.171 65.436V81.978C101.171 82.326 101.003 82.5 100.667 82.5C100.295 82.5 100.109 82.326 100.109 81.978V65.436ZM120.677 65.31C120.677 64.974 120.845 64.806 121.181 64.806C121.529 64.806 121.703 64.974 121.703 65.31V82.104C121.667 82.368 121.511 82.5 121.235 82.5H121.217H121.145H121.127H107.519C107.171 82.5 106.997 82.326 106.997 81.978V65.238C106.997 65.082 107.021 64.962 107.069 64.878C107.129 64.782 107.237 64.734 107.393 64.734C107.501 64.734 107.579 64.746 107.627 64.77C107.687 64.794 107.747 64.848 107.807 64.932L120.677 80.43V65.31ZM108.023 81.474H120.029L108.023 66.822V81.474ZM126.843 76.29C126.843 75.786 127.107 75.534 127.635 75.534H133.071L126.681 65.832C126.609 65.736 126.543 65.646 126.483 65.562C126.435 65.466 126.417 65.376 126.429 65.292C126.429 65.124 126.507 65.01 126.663 64.95C126.831 64.878 126.981 64.842 127.113 64.842H133.629C134.457 64.842 135.219 65.004 135.915 65.328C136.623 65.64 137.235 66.066 137.751 66.606C138.267 67.146 138.669 67.776 138.957 68.496C139.257 69.216 139.407 69.978 139.407 70.782C139.407 71.562 139.263 72.312 138.975 73.032C138.687 73.74 138.285 74.364 137.769 74.904C137.265 75.444 136.665 75.876 135.969 76.2C135.273 76.524 134.523 76.686 133.719 76.686H127.869V81.924C127.869 82.164 127.809 82.32 127.689 82.392C127.581 82.464 127.479 82.5 127.383 82.5C127.275 82.5 127.155 82.476 127.023 82.428C126.903 82.368 126.843 82.194 126.843 81.906V76.29ZM127.905 65.868L134.223 75.498C134.787 75.414 135.315 75.234 135.807 74.958C136.299 74.67 136.725 74.316 137.085 73.896C137.457 73.476 137.745 73.002 137.949 72.474C138.165 71.946 138.273 71.394 138.273 70.818C138.273 70.158 138.153 69.528 137.913 68.928C137.673 68.328 137.343 67.806 136.923 67.362C136.503 66.906 136.011 66.546 135.447 66.282C134.883 66.018 134.277 65.88 133.629 65.868H127.905ZM143.176 65.436C143.176 65.088 143.362 64.914 143.734 64.914C144.07 64.914 144.238 65.088 144.238 65.436V81.978C144.238 82.326 144.07 82.5 143.734 82.5C143.362 82.5 143.176 82.326 143.176 81.978V65.436ZM149.236 82.5C148.984 82.5 148.858 82.404 148.858 82.212C148.858 82.14 148.876 82.05 148.912 81.942L156.724 65.058C156.796 64.878 156.922 64.788 157.102 64.788H157.192C157.216 64.788 157.234 64.788 157.246 64.788C157.27 64.776 157.294 64.77 157.318 64.77C157.51 64.77 157.642 64.896 157.714 65.148L165.418 81.906C165.478 82.05 165.508 82.158 165.508 82.23C165.508 82.41 165.388 82.5 165.148 82.5H149.236ZM150.19 81.474H164.158L157.192 66.534L150.19 81.474Z" fill="#00009B"/>
<path d="M66.02 93.72C66.2333 93.72 66.46 93.7333 66.7 93.76C66.9533 93.7867 67.1933 93.8267 67.42 93.88C67.66 93.92 67.8733 93.9667 68.06 94.02C68.26 94.06 68.4133 94.1067 68.52 94.16V96.38H68.34C68.34 95.74 68.12 95.24 67.68 94.88C67.24 94.5067 66.7067 94.32 66.08 94.32C65.3467 94.32 64.7533 94.5533 64.3 95.02C63.8467 95.4733 63.62 96.0067 63.62 96.62C63.62 96.8733 63.6733 97.1733 63.78 97.52C63.9 97.8533 64.1133 98.1667 64.42 98.46L68.36 102.1C68.76 102.473 69.0267 102.873 69.16 103.3C69.2933 103.727 69.36 104.14 69.36 104.54C69.36 105.647 69.02 106.547 68.34 107.24C67.6733 107.933 66.7667 108.28 65.62 108.28C65.3 108.28 64.92 108.247 64.48 108.18C64.0533 108.113 63.6333 108 63.22 107.84C62.82 107.667 62.4867 107.447 62.22 107.18C62.18 106.967 62.16 106.7 62.16 106.38C62.16 106.06 62.1867 105.727 62.24 105.38C62.2933 105.02 62.3667 104.693 62.46 104.4H62.64C62.5733 105.08 62.66 105.673 62.9 106.18C63.14 106.687 63.4867 107.073 63.94 107.34C64.4067 107.593 64.9333 107.707 65.52 107.68C66.2533 107.64 66.88 107.387 67.4 106.92C67.9333 106.44 68.2 105.8 68.2 105C68.2 104.613 68.1333 104.267 68 103.96C67.8667 103.64 67.6733 103.367 67.42 103.14L63.58 99.58C63.18 99.2067 62.9 98.8 62.74 98.36C62.58 97.9067 62.5 97.4867 62.5 97.1C62.5 96.54 62.6333 96 62.9 95.48C63.1667 94.96 63.56 94.54 64.08 94.22C64.6133 93.8867 65.26 93.72 66.02 93.72ZM68.52 93.92V94.34H67V93.92H68.52ZM77.3322 94.06V108H76.0322V94.06H77.3322ZM82.4722 93.98V94.58H70.8922V93.98H82.4722ZM82.4722 94.52V96.14L82.2722 96.12V95.78C82.2722 95.4467 82.1522 95.1667 81.9122 94.94C81.6855 94.7133 81.4122 94.5933 81.0922 94.58V94.52H82.4722ZM82.4722 93.62V94.2L80.0322 93.98C80.3255 93.98 80.6322 93.96 80.9522 93.92C81.2855 93.88 81.5922 93.8333 81.8722 93.78C82.1522 93.7267 82.3522 93.6733 82.4722 93.62ZM76.0922 106.54V108H74.4922V107.8C74.4922 107.8 74.5322 107.8 74.6122 107.8C74.7055 107.8 74.7522 107.8 74.7522 107.8C75.0989 107.8 75.3922 107.68 75.6322 107.44C75.8855 107.187 76.0189 106.887 76.0322 106.54H76.0922ZM77.2722 106.54H77.3322C77.3455 106.887 77.4722 107.187 77.7122 107.44C77.9655 107.68 78.2655 107.8 78.6122 107.8C78.6122 107.8 78.6522 107.8 78.7322 107.8C78.8255 107.8 78.8722 107.8 78.8722 107.8V108H77.2722V106.54ZM72.2722 94.52V94.58C71.9389 94.5933 71.6589 94.7133 71.4322 94.94C71.2055 95.1667 71.0922 95.4467 71.0922 95.78V96.12L70.8922 96.14V94.52H72.2722ZM70.8922 93.62C71.0255 93.6733 71.2255 93.7267 71.4922 93.78C71.7722 93.8333 72.0789 93.88 72.4122 93.92C72.7455 93.96 73.0522 93.98 73.3322 93.98L70.8922 94.2V93.62ZM88.6292 93.72L94.5492 107.88H92.8492L88.2292 95.62L88.6292 93.72ZM84.3292 106.54C84.2359 106.807 84.2226 107.033 84.2892 107.22C84.3559 107.407 84.4626 107.553 84.6092 107.66C84.7692 107.753 84.9292 107.8 85.0892 107.8H85.2692V108H81.2492V107.8C81.2492 107.8 81.2826 107.8 81.3492 107.8C81.4026 107.8 81.4292 107.8 81.4292 107.8C81.7359 107.8 82.0492 107.707 82.3692 107.52C82.7026 107.32 82.9759 106.993 83.1892 106.54H84.3292ZM88.6292 93.72L88.8092 95.12L83.7892 107.94H82.5892L87.7092 95.78C87.7092 95.78 87.7426 95.7 87.8092 95.54C87.8892 95.3667 87.9759 95.16 88.0692 94.92C88.1759 94.68 88.2626 94.4467 88.3292 94.22C88.4092 93.9933 88.4492 93.8267 88.4492 93.72H88.6292ZM91.4492 102.54V103.14H85.1892V102.54H91.4492ZM92.3492 106.54H93.9892C94.1892 106.993 94.4559 107.32 94.7892 107.52C95.1226 107.707 95.4426 107.8 95.7492 107.8C95.7492 107.8 95.7759 107.8 95.8292 107.8C95.8826 107.8 95.9092 107.8 95.9092 107.8V108H91.4092V107.8H91.5892C91.8426 107.8 92.0692 107.693 92.2692 107.48C92.4692 107.253 92.4959 106.94 92.3492 106.54ZM99.4675 94H102.288C102.888 94 103.428 94.0867 103.908 94.26C104.401 94.4333 104.814 94.6867 105.148 95.02C105.481 95.34 105.734 95.7333 105.908 96.2C106.094 96.6533 106.188 97.1733 106.188 97.76C106.188 98.4 106.034 99.0133 105.728 99.6C105.434 100.187 105.028 100.667 104.508 101.04C104.001 101.4 103.428 101.58 102.788 101.58C103.014 101.673 103.261 101.867 103.528 102.16C103.794 102.44 104.028 102.713 104.228 102.98C104.228 102.98 104.314 103.113 104.488 103.38C104.674 103.633 104.901 103.947 105.168 104.32C105.448 104.693 105.728 105.06 106.008 105.42C106.288 105.78 106.528 106.067 106.728 106.28C106.994 106.573 107.261 106.833 107.528 107.06C107.794 107.287 108.081 107.467 108.388 107.6C108.708 107.733 109.061 107.8 109.448 107.8V108H108.348C107.734 108 107.201 107.907 106.748 107.72C106.308 107.533 105.934 107.307 105.628 107.04C105.321 106.76 105.061 106.493 104.848 106.24C104.808 106.187 104.694 106.033 104.508 105.78C104.334 105.527 104.121 105.227 103.868 104.88C103.628 104.52 103.388 104.167 103.148 103.82C102.908 103.473 102.701 103.18 102.528 102.94C102.354 102.687 102.254 102.54 102.228 102.5C101.974 102.167 101.694 101.86 101.388 101.58C101.081 101.3 100.748 101.16 100.388 101.16V100.96C100.388 100.96 100.488 100.967 100.688 100.98C100.901 100.98 101.154 100.973 101.448 100.96C101.794 100.947 102.174 100.893 102.588 100.8C103.001 100.707 103.388 100.513 103.748 100.22C104.108 99.9267 104.381 99.48 104.568 98.88C104.608 98.7333 104.641 98.5533 104.668 98.34C104.694 98.1133 104.701 97.8933 104.688 97.68C104.674 96.7733 104.441 96.0533 103.988 95.52C103.548 94.9733 102.954 94.68 102.208 94.64C101.834 94.6133 101.448 94.6067 101.048 94.62C100.661 94.62 100.334 94.62 100.068 94.62C99.8008 94.62 99.6675 94.62 99.6675 94.62C99.6675 94.6067 99.6475 94.5533 99.6075 94.46C99.5808 94.3533 99.5475 94.2533 99.5075 94.16C99.4808 94.0533 99.4675 94 99.4675 94ZM99.7275 94V108H98.4275V94H99.7275ZM98.4875 106.54V108H96.8875V107.8C96.8875 107.8 96.9275 107.8 97.0075 107.8C97.1008 107.8 97.1475 107.8 97.1475 107.8C97.4942 107.8 97.7875 107.68 98.0275 107.44C98.2808 107.187 98.4142 106.887 98.4275 106.54H98.4875ZM98.4875 95.46H98.4275C98.4142 95.1133 98.2808 94.82 98.0275 94.58C97.7875 94.3267 97.4942 94.2 97.1475 94.2C97.1475 94.2 97.1008 94.2 97.0075 94.2C96.9275 94.2 96.8875 94.2 96.8875 94.2V94H98.4875V95.46ZM99.6675 106.54H99.7275C99.7275 106.887 99.8542 107.187 100.108 107.44C100.361 107.68 100.661 107.8 101.008 107.8C101.008 107.8 101.048 107.8 101.128 107.8C101.208 107.8 101.248 107.8 101.248 107.8V108H99.6675V106.54ZM114.969 94.06V108H113.669V94.06H114.969ZM120.109 93.98V94.58H108.529V93.98H120.109ZM120.109 94.52V96.14L119.909 96.12V95.78C119.909 95.4467 119.789 95.1667 119.549 94.94C119.322 94.7133 119.049 94.5933 118.729 94.58V94.52H120.109ZM120.109 93.62V94.2L117.669 93.98C117.962 93.98 118.269 93.96 118.589 93.92C118.922 93.88 119.229 93.8333 119.509 93.78C119.789 93.7267 119.989 93.6733 120.109 93.62ZM113.729 106.54V108H112.129V107.8C112.129 107.8 112.169 107.8 112.249 107.8C112.342 107.8 112.389 107.8 112.389 107.8C112.736 107.8 113.029 107.68 113.269 107.44C113.522 107.187 113.656 106.887 113.669 106.54H113.729ZM114.909 106.54H114.969C114.982 106.887 115.109 107.187 115.349 107.44C115.602 107.68 115.902 107.8 116.249 107.8C116.249 107.8 116.289 107.8 116.369 107.8C116.462 107.8 116.509 107.8 116.509 107.8V108H114.909V106.54ZM109.909 94.52V94.58C109.576 94.5933 109.296 94.7133 109.069 94.94C108.842 95.1667 108.729 95.4467 108.729 95.78V96.12L108.529 96.14V94.52H109.909ZM108.529 93.62C108.662 93.6733 108.862 93.7267 109.129 93.78C109.409 93.8333 109.716 93.88 110.049 93.92C110.382 93.96 110.689 93.98 110.969 93.98L108.529 94.2V93.62Z" fill="#00009B"/>
</svg>
