<svg width="158" height="176" viewBox="0 0 158 176" fill="none" xmlns="http://www.w3.org/2000/svg">
<path d="M34.3342 133.518C40.8956 135.448 47.6997 136.428 54.539 136.428H55.9513C61.3125 136.428 66.6606 135.898 71.9178 134.847L75.6515 134.1L84.3805 132.354L92.5275 130.026L99.5107 127.699L98.3469 130.608L97.7649 132.936L96.2479 133.626C93.0006 135.102 89.6084 136.236 86.1263 137.01V137.01L79.725 138.174L75.6515 138.755V138.755C70.6204 139.529 65.5251 139.803 60.4401 139.572L55.2838 139.337L49.7757 138.97C47.6345 138.827 45.5144 138.458 43.451 137.869L43.2211 137.803C40.0358 136.893 37.03 135.444 34.3342 133.518V133.518V133.518Z" fill="#A8C7FF"/>
<path d="M49.6052 104.583C47.5831 103.319 45.765 101.755 44.2132 99.9443V99.9443C43.4474 99.0509 42.7497 98.1012 42.126 97.1034L41.9364 96.8C40.7518 94.9046 39.796 92.8753 39.0892 90.7548L37.8254 86.9636L38.7004 88.4947C39.6674 90.1871 40.7648 91.8017 41.9824 93.3237L43.6015 95.3476C45.9303 98.2586 48.8632 100.63 52.1975 102.297V102.297C54.2457 103.321 56.4212 104.067 58.6666 104.516L61.1028 105.004L64.8568 105.254C68.1623 105.474 71.4822 105.31 74.7499 104.766V104.766C78.4385 104.151 82.0307 103.056 85.4349 101.509L87.0687 100.766C91.0818 98.9419 94.8669 96.6532 98.3465 93.9468V93.9468L102.42 96.8565V96.8565C98.1867 100.705 93.2984 103.764 87.9864 105.889L87.2898 106.167V106.167C82.6704 108.092 77.7482 109.188 72.7486 109.406L66.9221 109.659L64.8886 109.532C60.0953 109.232 55.4261 107.885 51.2099 105.585V105.585L49.6052 104.583Z" fill="#A8C7FF"/>
<path d="M47.7191 91.0373L45.9733 88.1277L44.2275 85.218L48.883 90.4554L49.7399 91.1899C51.8593 93.0065 54.3461 94.344 57.0301 95.1109V95.1109V95.1109C59.7385 95.8847 62.5197 96.3759 65.3294 96.5766L65.9309 96.6196C68.1413 96.7774 70.36 96.7774 72.5704 96.6196L77.3977 96.2747V96.2747C82.4042 95.5045 87.2421 93.8836 91.7021 91.4821L92.528 91.0373L96.6015 93.3651L91.9035 96.0077C88.8381 97.732 85.5872 99.1035 82.2131 100.096L81.9591 100.171C78.927 101.062 75.8078 101.626 72.6552 101.851L71.9925 101.898C70.1673 102.029 68.3348 102.018 66.5113 101.866L64.8661 101.729C63.1398 101.585 61.437 101.235 59.7937 100.688L59.73 100.666C57.938 100.069 56.2337 99.2355 54.6621 98.1877V98.1877C52.7616 96.9207 51.0777 95.3556 49.6754 93.5526L47.7191 91.0373Z" fill="#A8C7FF"/>
<path d="M91.3646 82.8908L97.7659 84.6366L102.44 85.805C103.972 86.1881 105.445 86.7798 106.816 87.5635V87.5635C108.148 88.3245 109.372 89.2597 110.457 90.3443L112.314 92.2017L111.15 93.3656H104.167H99.5117H96.8381C96.6828 93.3656 96.5297 93.3295 96.3909 93.26L95.4381 92.7837L90.2008 89.874V89.874C87.1015 87.937 84.1519 85.77 81.377 83.3915L77.3982 79.9811L73.5465 77.4133C72.6252 76.7991 71.6426 76.2823 70.6146 75.8711L70.5767 75.8559C69.6948 75.5032 68.7826 75.232 67.8513 75.0457L66.6405 74.8035C66.4416 74.7638 66.2394 74.7437 66.0366 74.7437H57.8087C57.227 74.7437 56.9985 73.9892 57.4826 73.6665V73.6665C57.5677 73.6097 57.6366 73.5317 57.6823 73.4402L57.7874 73.2301C58.0369 72.7312 58.5468 72.416 59.1046 72.416H66.2596C67.4721 72.416 68.6788 72.585 69.8447 72.9181L72.1608 73.5799V73.5799C74.0954 74.3537 75.9443 75.3263 77.678 76.4821L78.5621 77.0715L84.3814 79.9811L91.3646 82.8908Z" fill="#00009B"/>
<path d="M98.5723 94.2913C98.2603 94.0833 98.4567 93.597 98.8257 93.664L99.417 93.7716C102.19 94.2757 105.003 94.5293 107.821 94.5293H109.404L107.297 96.215C106.768 96.6381 106.154 96.9421 105.497 97.1064L105.39 97.1333C104.591 97.333 103.752 97.3007 102.971 97.0404V97.0404C102.606 96.9187 102.259 96.7489 101.939 96.5355L98.5723 94.2913Z" fill="#00009B"/>
<path d="M50.3455 77.6953C49.8231 77.6704 49.3787 77.3061 49.2518 76.7987V76.7987C49.0647 76.0505 49.6306 75.3257 50.4019 75.3257H58.1945H63.7897C65.8599 75.3257 67.911 75.7207 69.8331 76.4895V76.4895L73.3247 78.2353L76.2344 79.9811L80.7573 83.3733C80.8445 83.4387 80.9152 83.5235 80.964 83.6209L80.9987 83.6905C81.2161 84.1252 80.9 84.6366 80.414 84.6366V84.6366C80.3438 84.6366 80.2739 84.6253 80.2073 84.6031L76.8163 83.4727L76.5999 83.38C74.0339 82.2803 71.5741 80.9478 69.2512 79.3992V79.3992V79.3992C68.1129 78.6403 66.7753 78.2353 65.4072 78.2353H61.6861L50.3455 77.6953Z" fill="#00009B"/>
<path d="M45.0423 72.1638C46.0499 72.3317 47.0697 72.4161 48.0913 72.4161H55.8673H56.4009C56.8482 72.4161 57.0722 72.957 56.7559 73.2733V73.2733C55.8143 74.2149 54.5372 74.7439 53.2056 74.7439H51.6092C50.5912 74.7439 49.5959 75.0452 48.7489 75.6099V75.6099C48.4518 75.8079 48.1351 75.9746 47.8036 76.1072L47.5686 76.2012C46.1509 76.7682 44.5951 76.8944 43.1045 76.5632L40.9283 76.0796C40.4147 75.9655 39.9171 75.7888 39.4466 75.5535V75.5535C38.3876 75.024 37.4953 74.2127 36.8678 73.2087L36.1791 72.1067C35.3477 70.7764 34.2426 69.6384 32.9373 68.7682L29.6803 66.5968L29.083 66.1488C27.9392 65.291 26.9639 64.2292 26.2061 63.0168L25.3681 61.676C24.7635 60.7085 24.4429 59.5906 24.4429 58.4498V58.4498V58.4037C24.4429 57.8901 24.9833 57.5561 25.4426 57.7858L25.4671 57.798C25.5586 57.8438 25.6366 57.9126 25.6934 57.9977L25.904 58.3137C26.1636 58.7031 26.7706 58.5193 26.7706 58.0513V58.0513C26.7706 57.6996 27.1407 57.4709 27.4552 57.6282L27.7863 57.7937C27.8837 57.8425 27.9685 57.9132 28.0339 58.0004L29.1977 59.5522C29.4194 59.8478 29.8747 59.8067 30.0399 59.4762V59.4762C30.1627 59.2307 30.4612 59.1312 30.7068 59.254L31.1351 59.4681C31.324 59.5626 31.4771 59.7157 31.5716 59.9046L31.9057 60.573C31.9738 60.7091 32.0322 60.85 32.0803 60.9944L32.2098 61.3827C32.4621 62.1397 32.8142 62.8597 33.2568 63.5236L33.7538 64.2691V64.2691C34.5257 65.4269 35.4606 66.4673 36.5295 67.3581L38.4093 68.9246L38.7036 69.2188C39.6612 70.1765 40.8035 70.9297 42.061 71.4327V71.4327C42.7282 71.6996 43.4222 71.8938 44.1311 72.0119L45.0423 72.1638Z" fill="#00009B"/>
<path d="M23.1391 64.4326C22.9214 63.7793 23.4076 63.1047 24.0962 63.1047V63.1047C24.3205 63.1047 24.5385 63.1795 24.7156 63.3172L29.6797 67.1783L30.6338 67.7507C31.9326 68.53 33.131 69.4656 34.202 70.5367V70.5367C35.0646 71.3993 35.8399 72.345 36.5166 73.36L36.6629 73.5795L37.2449 74.7434V74.7434C37.5122 75.2781 37.1234 75.9073 36.5256 75.9073H36.081H34.3352V75.9073C33.1968 75.9073 32.084 76.2442 31.1368 76.8757L30.8436 77.0711L29.3229 78.085C29.1761 78.1828 29.0037 78.235 28.8273 78.235V78.235C28.3339 78.235 27.9339 77.835 27.9339 77.3416V77.0711C27.9339 76.7048 28.1064 76.3598 28.3995 76.14L30.1259 74.8452C30.2163 74.7774 30.3018 74.7033 30.3817 74.6234V74.6234C31.0214 73.9836 31.2448 73.0374 30.9587 72.1791L30.9036 72.0138C30.8637 71.8939 30.8152 71.777 30.7587 71.664L30.6664 71.4793C30.3983 70.9432 30.0456 70.4538 29.6218 70.03L28.6429 69.0511C28.1708 68.579 27.6659 68.1411 27.1319 67.7406L23.549 65.0534C23.3728 64.9213 23.2412 64.7386 23.1715 64.5297L23.1391 64.4326Z" fill="#00009B"/>
<path d="M61.1038 78.8171H63.6103C64.2659 78.8171 64.9204 78.8713 65.567 78.9791L66.6707 79.163C67.6042 79.3186 68.4941 79.6705 69.2816 80.1955L69.7868 80.5323C69.8174 80.5527 69.8458 80.576 69.8718 80.602V80.602C70.2448 80.975 69.9399 81.6094 69.4156 81.5511L65.7592 81.1449L61.6857 80.5629L58.7206 80.0688C58.4168 80.0181 58.1941 79.7552 58.1941 79.4472V79.4472C58.1941 79.0992 58.4762 78.8171 58.8242 78.8171H61.1038Z" fill="#00009B"/>
<path d="M80.4954 61.3024C80.7577 60.9526 81.0446 60.6219 81.3537 60.3128L82.0651 59.6014C82.4442 59.2223 82.8599 58.8815 83.306 58.5841L83.4097 58.515C83.8601 58.2147 84.4695 58.4872 84.5461 59.023V59.023C84.8136 60.896 84.3494 62.8 83.2497 64.3395L82.9154 64.8075C82.3489 65.6006 81.9813 66.5181 81.8435 67.4828L81.8085 67.728C81.5933 69.2339 82.0103 70.7618 82.9606 71.9496V71.9496C83.5115 72.6383 84.2197 73.1846 85.0256 73.5428L87.0569 74.4456C88.3694 75.029 89.7607 75.416 91.186 75.5941L92.6794 75.7808C93.3495 75.8646 94.0006 76.0617 94.6046 76.3637L95.5605 76.8416C95.8614 76.9921 96.1178 77.2185 96.3044 77.4984V77.4984C96.8156 78.2651 96.7145 79.2861 96.0629 79.9377L95.6259 80.3747C95.5007 80.4998 95.3636 80.6123 95.2163 80.7104L93.8927 81.5928C93.7916 81.6602 93.654 81.613 93.6156 81.4977L93.3011 80.5543C93.1914 80.2253 93.3404 79.8657 93.6506 79.7106V79.7106C93.9948 79.5385 94.1343 79.1199 93.9622 78.7757L93.6919 78.2351V78.2351C93.3353 77.5218 92.6062 77.0712 91.8087 77.0712H85.5273C85.1515 77.0712 84.7762 77.0446 84.4042 76.9914L82.6135 76.7356C81.5164 76.5789 80.5381 75.9623 79.9233 75.0402L79.7029 74.7096C79.0056 73.6635 77.7695 73.1109 76.5249 73.2887V73.2887C75.2803 73.4665 74.0442 72.9138 73.3469 71.8677L73.209 71.661C72.5606 70.6883 72.483 69.4428 73.0058 68.3972L73.028 68.3529C73.5662 67.2764 74.6664 66.5964 75.87 66.5964V66.5964C77.4232 66.5964 78.7488 65.4735 79.0042 63.9414L79.0135 63.8852C79.099 63.3725 79.3064 62.8878 79.6183 62.4719L80.4954 61.3024Z" fill="#00009B"/>
<path d="M86.6393 56.4474C86.9835 56.2753 87.4003 56.448 87.522 56.813L87.6165 57.0966C87.7867 57.6069 87.8734 58.1414 87.8734 58.6794V58.6794C87.8734 59.6676 88.1659 60.6336 88.714 61.4558L90.2011 63.6865L91.4798 65.3914C91.783 65.7957 91.9469 66.2874 91.9469 66.7927V66.7927C91.9469 67.412 91.7009 68.006 91.2629 68.444L90.7585 68.9485C90.3938 69.3132 90.1348 69.7709 90.0098 70.2713V70.2713C89.7677 71.2395 90.051 72.2653 90.7567 72.971L90.7991 73.0134C91.1681 73.3824 91.638 73.6339 92.1498 73.7363L93.704 74.0471C94.0358 74.1135 94.2746 74.4048 94.2746 74.7432V74.7432V74.7432C94.2746 75.0478 94.0011 75.2795 93.7006 75.2295L90.783 74.7432L88.6671 74.32C88.1391 74.2144 87.6218 74.0606 87.1218 73.8606L86.4482 73.5912C85.4752 73.202 84.6196 72.5672 83.9649 71.7489L83.7544 71.4857C83.0304 70.5808 82.636 69.4563 82.636 68.2974V68.2974C82.636 67.1931 82.9942 66.1186 83.6568 65.2351L83.8297 65.0045C84.1954 64.517 84.48 63.9737 84.6728 63.3955V63.3955C84.8655 62.8173 84.9637 62.2119 84.9637 61.6025V58.8096C84.9637 58.0338 85.3288 57.3031 85.9491 56.8373V56.8373C86.0679 56.7481 86.1944 56.6699 86.3272 56.6035L86.6393 56.4474Z" fill="#00009B"/>
<path d="M95.9224 76.2298C95.6199 76.0282 95.4382 75.6887 95.4382 75.3251V75.3251V75.3251C95.4382 75.0295 95.716 74.8126 96.0027 74.8843L97.7659 75.3251V75.3251C99.3022 75.7092 100.746 76.3965 102.013 77.3467L102.421 77.6528V77.6528C103.577 78.423 104.856 78.9888 106.203 79.3256L106.495 79.3986L107.116 79.6057C107.861 79.854 108.561 80.2207 109.189 80.6918L109.913 81.2346C110.344 81.558 110.694 81.9773 110.935 82.4594V82.4594C111.041 82.6714 110.908 82.9248 110.674 82.9583L107.077 83.4722L106.507 83.5535C104.185 83.8853 101.826 83.8578 99.5117 83.4722V83.4722L95.2337 83.0444C94.7156 82.9925 94.548 82.3198 94.9812 82.031V82.031C95.2851 81.8284 95.5683 81.5963 95.8265 81.338L96.3522 80.8123C96.5184 80.6462 96.6677 80.464 96.798 80.2686L97.166 79.7166C97.5445 79.1488 97.6397 78.4381 97.4239 77.7907V77.7907C97.2684 77.3242 96.9618 76.9228 96.5527 76.65L95.9224 76.2298Z" fill="#00009B"/>
<path d="M88.4543 56.7249C88.4543 56.3916 88.7246 56.1213 89.0579 56.1213H90.0109C90.5181 56.1213 91.0182 56.2394 91.4718 56.4662L91.5315 56.4961C91.806 56.6333 92.0566 56.8139 92.2736 57.0309V57.0309C92.809 57.5663 93.1098 58.2925 93.1098 59.0498V59.213C93.1098 59.4786 93.0772 59.7433 93.0128 60.001L92.5898 61.6931C92.5487 61.8575 92.5279 62.0264 92.5279 62.1958V63.4454C92.5279 63.8999 92.1594 64.2684 91.7049 64.2684V64.2684C91.4866 64.2684 91.2773 64.1817 91.123 64.0274L90.5278 63.4322C90.3108 63.2152 90.1302 62.9646 89.9929 62.6901L89.9631 62.6304C89.7363 62.1768 89.6182 61.6767 89.6182 61.1695V60.662C89.6182 59.978 89.4157 59.3092 89.0363 58.74V58.74C88.6568 58.1709 88.4543 57.5021 88.4543 56.818V56.7249Z" fill="#00009B"/>
<path d="M93.1585 65.3844C93.4979 65.045 93.9672 64.8687 94.4461 64.9006L101.372 65.3623C102.06 65.4082 102.723 65.6334 103.296 66.0155L103.842 66.3792C104.055 66.5214 104.228 66.7167 104.342 66.9459V66.9459C104.592 67.4449 104.538 68.0419 104.203 68.4881L103.219 69.8C103.076 69.9914 102.95 70.1954 102.843 70.4094V70.4094C102.566 70.9633 102.422 71.574 102.422 72.1932V72.4155V74.0238C102.422 74.4929 102.56 74.9515 102.821 75.3418L103.373 76.1697C103.504 76.3671 103.52 76.62 103.414 76.8322V76.8322C103.212 77.236 102.674 77.3233 102.355 77.0041L100.615 75.2644C100.275 74.9246 99.8423 74.6929 99.371 74.5986L97.1841 74.1613L96.113 73.8042C95.6662 73.6553 95.1982 73.5793 94.7271 73.5793V73.5793C94.0467 73.5793 93.3757 73.4209 92.7672 73.1167L91.5703 72.5182C91.4342 72.4502 91.3099 72.3606 91.2023 72.253V72.253C90.6493 71.6999 90.6493 70.8033 91.2023 70.2502L91.2599 70.1926C91.3297 70.1229 91.4061 70.0602 91.4882 70.0055L91.7383 69.8387C92.5687 69.2852 92.9829 68.2852 92.7871 67.3066L92.7033 66.8876C92.5942 66.342 92.765 65.7779 93.1585 65.3844V65.3844Z" fill="#00009B"/>
<path d="M93.1106 63.1633C93.1106 62.3502 93.1909 61.5391 93.3504 60.7418L93.6925 59.031L93.9687 58.2024C94.1412 57.6848 94.6832 57.3873 95.2125 57.5197L95.3398 57.5515C96.1789 57.7613 96.9925 58.0623 97.7661 58.4491V58.4491L98.6696 58.9009C98.8408 58.9864 99.0296 59.031 99.221 59.031V59.031C99.4123 59.031 99.6009 58.9864 99.7721 58.9009L100.66 58.4567C100.67 58.4516 100.682 58.449 100.693 58.449V58.449C101.025 58.449 101.314 58.675 101.395 58.997L101.687 60.1673C101.787 60.5661 101.993 60.9304 102.284 61.2211L102.697 61.6342C102.901 61.838 103.124 62.0212 103.364 62.1811L104.584 62.9943C104.694 63.0676 104.796 63.1516 104.89 63.2451V63.2451C105.501 63.8562 105.652 64.7898 105.266 65.5628L104.937 66.2204C104.845 66.4052 104.598 66.4452 104.452 66.2991L103.96 65.8071C103.712 65.5588 103.425 65.3522 103.111 65.1952V65.1952C102.658 64.9684 102.158 64.8503 101.65 64.8503H98.348L94.209 64.3904C93.5837 64.321 93.1106 63.7924 93.1106 63.1633V63.1633Z" fill="#00009B"/>
<path d="M94.8564 47.9745L95.7873 49.464C97.0804 51.5329 97.7661 53.9236 97.7661 56.3634V56.3634C97.7661 56.8461 97.3327 57.2132 96.8566 57.1339L94.2745 56.7035L91.4651 55.9008C90.7696 55.7021 90.3709 54.9731 90.5787 54.2803V54.2803C91.4799 51.2763 91.717 48.1122 91.2735 45.0074L91.1278 43.988C91.0477 43.4274 91.7884 43.1534 92.0925 43.6312L94.8564 47.9745Z" fill="#00009B"/>
<path d="M85.9737 33.9319C86.0735 33.9818 86.1563 34.0601 86.2116 34.157L88.4545 38.082L89.6184 40.4097V40.4097C90.3872 42.3318 90.7822 44.383 90.7822 46.4532V47.3929V48.8189C90.7822 49.8056 90.6848 50.7899 90.4913 51.7574L90.2103 53.1624C90.2036 53.1955 90.2003 53.2293 90.2003 53.2631V53.2631C90.2003 53.7708 89.5417 53.9702 89.2601 53.5477L87.8726 51.4664L87.4716 50.6645C86.9653 49.6518 86.5962 48.5762 86.3741 47.4659V47.4659C86.2096 46.6433 86.1268 45.8065 86.1268 44.9677V40.1085C86.1268 39.9217 86.11 39.7354 86.0765 39.5516L85.1651 34.5384C85.0818 34.0803 85.5572 33.7237 85.9737 33.9319V33.9319Z" fill="#00009B"/>
<path d="M80.3078 32.8445L79.1439 31.6807L77.98 30.5168V30.5168C77.2092 29.7459 76.5676 28.8558 76.0801 27.8808L75.6523 27.0252L74.4884 24.6975L72.4951 21.5298L73.9065 21.7878L75.1778 22.8048C76.2635 23.6734 77.2087 24.7044 77.98 25.8613V25.8613L78.0216 25.9444C78.3811 26.6635 78.8046 27.3488 79.287 27.9919L79.4888 28.2611C80.0326 28.9861 80.6659 29.6394 81.3735 30.2056L81.4079 30.2331C82.6001 31.1868 83.571 32.3878 84.2537 33.7533V33.7533C84.7241 34.694 85.0511 35.6997 85.224 36.7371L85.4444 38.0593C85.5115 38.4617 85.5452 38.8689 85.5452 39.2768V39.2768C85.5452 39.7353 84.9351 39.8934 84.7124 39.4926L83.4102 37.1486C82.8946 36.2207 82.3022 35.3375 81.639 34.5086L80.3078 32.8445Z" fill="#00009B"/>
<path d="M105.034 85.9564C104.396 85.7244 104.428 84.8113 105.081 84.6248L107.077 84.0543L109.463 83.7135C110.583 83.5536 111.719 83.5536 112.839 83.7135L113.138 83.7562C114.515 83.953 115.839 84.4231 117.032 85.139V85.139C117.764 85.5781 118.439 86.1053 119.043 86.7089L119.298 86.964L113.479 91.6195L113.18 91.5448C111.892 91.2229 110.809 90.3542 110.216 89.1667V89.1667C109.695 88.126 108.796 87.3243 107.702 86.9267L105.034 85.9564Z" fill="#00009B"/>
<path d="M110.844 80.554C110.293 80.2395 110.516 79.3992 111.15 79.3992V79.3992V79.3992C112.688 79.3992 114.212 79.6926 115.639 80.2637L116.388 80.563L119.297 83.4727V83.4727C119.67 83.8453 119.879 84.3507 119.879 84.8776V85.8865C119.879 86.0985 119.643 86.2249 119.467 86.1073L112.896 81.7269L110.844 80.554Z" fill="#00009B"/>
<path d="M116.386 100.348L119.296 98.0208L121.53 99.9359C122.747 100.979 123.776 102.224 124.571 103.616V103.616C125.317 104.921 125.847 106.337 126.142 107.811L126.279 108.496L126.367 109.113C126.696 111.414 126.861 113.736 126.861 116.061V116.061V117.154C126.861 118.711 126.356 120.226 125.422 121.471V121.471C125.218 121.743 124.994 122.001 124.754 122.242L124.242 122.753C123.661 123.334 123.039 123.873 122.382 124.366L118.714 127.117H115.36C114.762 127.117 114.373 126.488 114.64 125.954V125.954L117.55 122.462V122.462C119.458 119.791 120.65 116.676 121.012 113.413L121.042 113.151V112.399C121.042 109.832 120.444 107.3 119.296 105.004V105.004L116.386 100.348Z" fill="#00009B"/>
<path d="M123.952 95.6929L127.308 99.5289C127.784 100.073 128.189 100.676 128.512 101.322V101.322C128.96 102.218 129.246 103.185 129.356 104.18L129.517 105.621C129.686 107.142 129.644 108.679 129.392 110.188L129.189 111.405L128.71 113.801C128.65 114.1 128.388 114.315 128.083 114.315V114.315C127.73 114.315 127.443 114.028 127.443 113.675V111.09C127.443 110.912 127.429 110.735 127.4 110.56L127.046 108.441C126.923 107.702 126.743 106.975 126.506 106.265V106.265C125.971 104.661 125.157 103.164 124.101 101.844L123.37 100.93L121.042 98.6025L123.952 95.6929Z" fill="#00009B"/>
<path d="M112.313 105.004L116.387 102.094L118.022 104.957C118.483 105.762 118.862 106.611 119.155 107.491V107.491C119.634 108.927 119.878 110.431 119.878 111.945V113.738C119.878 114.893 119.717 116.042 119.4 117.152V117.152C118.947 118.736 118.184 120.215 117.155 121.501L116.387 122.462L114.361 124.994C114.161 125.244 114.007 125.527 113.906 125.831V125.831C113.636 126.641 113 127.276 112.19 127.546L111.731 127.699L111.503 127.775C110.494 128.112 109.525 128.557 108.614 129.104V129.104C107.592 129.717 106.65 130.453 105.807 131.295L104.748 132.355V132.355C103.592 133.511 102.629 134.846 101.898 136.309L101.838 136.428L101.256 137.592L97.7648 138.756L97.5289 136.633C97.3017 134.588 97.5826 132.519 98.3467 130.609V130.609L98.6559 129.681C99.2207 127.987 100.097 126.413 101.241 125.041V125.041C102.024 124.101 102.924 123.266 103.919 122.555L104.434 122.187C105.801 121.211 107.29 120.417 108.863 119.827L111.149 118.97L112.398 118.346C113.108 117.991 113.725 117.476 114.201 116.841V116.841C114.864 115.957 115.223 114.881 115.223 113.775V112.753C115.223 111.484 114.927 110.232 114.36 109.097L112.313 105.004Z" fill="#00009B"/>
<path d="M111.97 113.117C112.198 111.978 112.313 110.82 112.313 109.659V109.659V108.108C112.313 107.821 112.659 107.678 112.862 107.88V107.88C113.269 108.288 113.608 108.758 113.865 109.273L113.951 109.443C114.404 110.351 114.64 111.351 114.64 112.365V112.66C114.64 113.743 114.346 114.805 113.789 115.733V115.733C113.205 116.707 112.355 117.494 111.34 118.001V118.001C111.055 118.144 110.739 117.871 110.84 117.568L111.149 116.642L111.731 114.314L111.97 113.117Z" fill="#00009B"/>
<path d="M106.714 131.553C107.341 130.926 108.042 130.379 108.802 129.923V129.923C109.968 129.223 111.256 128.749 112.598 128.525L112.999 128.458C113.704 128.341 114.418 128.281 115.133 128.281H117.55L110.759 133.375C110.632 133.471 110.493 133.551 110.347 133.613L102.42 137.01L103.73 135.045C104.407 134.03 105.182 133.084 106.045 132.222L106.714 131.553Z" fill="#00009B"/>
<path d="M108.24 146.903L117.551 141.084L116.969 148.649L115.805 155.05L114.642 159.124L111.15 160.288L107.076 162.034L103.003 162.616L103.585 161.452L104.749 159.124L105.913 156.214L107.076 153.305L107.601 151.469C108.025 149.984 108.24 148.448 108.24 146.903V146.903Z" fill="#00009B"/>
<path d="M101.257 149.813L107.077 147.485V147.485C106.69 150.189 105.95 152.83 104.874 155.341L104.749 155.632L103.585 158.542L102.36 160.992C102.145 161.421 101.533 161.421 101.319 160.992V160.992C101.278 160.912 101.257 160.823 101.257 160.732V158.542V154.468V149.813Z" fill="#00009B"/>
<path d="M118.982 141.399C119.461 140.92 120.248 140.964 120.671 141.492L124.534 146.322L128.608 150.395L127.444 151.559L125.116 153.305V153.305C123.57 154.464 121.891 155.435 120.114 156.197L118.715 156.796L118.133 154.469V154.469C117.748 153.312 117.551 152.101 117.551 150.883V150.699C117.551 150.109 117.593 149.52 117.676 148.936L118.661 142.04C118.696 141.797 118.809 141.572 118.982 141.399V141.399Z" fill="#00009B"/>
<path d="M122.788 136.429L126.862 141.084L130.81 145.033C131.201 145.423 131.201 146.056 130.81 146.447L128.782 148.475C128.373 148.884 127.703 148.862 127.322 148.427L123.952 144.576L122.579 142.927C121.568 141.714 120.844 140.288 120.461 138.756V138.756L122.788 136.429Z" fill="#00009B"/>
<path d="M127.181 140.272C127.002 140.075 127.01 139.772 127.198 139.584V139.584C127.345 139.436 127.569 139.396 127.759 139.484L135.009 142.83L132.681 146.321L127.181 140.272Z" fill="#00009B"/>
<path d="M109.404 133.519L115.805 129.445L121.042 125.372L122.928 123.722C124.742 122.135 126.099 120.093 126.862 117.807V117.807L129.189 120.134V120.134C129.934 120.88 130.353 121.89 130.353 122.944V123.727C130.353 124.43 130.227 125.127 129.98 125.785L129.229 127.788C128.816 128.89 128.293 129.948 127.669 130.946L127.245 131.625C126.217 133.27 125.005 134.793 123.633 136.165L122.585 137.214C120.785 139.014 118.812 140.631 116.694 142.043L114.852 143.271C112.387 144.914 109.805 146.376 107.128 147.644L106.147 148.109C102.119 150.017 97.9298 151.567 93.6292 152.74L91.9446 153.199C88.8459 154.044 85.6885 154.657 82.4986 155.032V155.032C79.103 155.432 75.6811 155.561 72.2651 155.418L63.4308 155.05H57.0295L67.5043 143.412H69.4791C73.5888 143.412 77.6933 143.12 81.7617 142.539L82.0739 142.494C85.9344 141.943 89.7896 141.107 93.5333 140.015V140.015C99.017 138.415 104.374 136.227 109.404 133.519V133.519Z" fill="#A8C7FF"/>
<path d="M116.387 80.5627H120.369C121.577 80.5627 122.769 80.844 123.849 81.3843L123.944 81.4316C125.093 82.0063 126.073 82.8709 126.785 83.94V83.94C127.594 85.1529 128.025 86.578 128.025 88.0357V88.2553C128.025 90.0585 127.424 91.8103 126.317 93.2337L125.016 94.9068C124.309 95.8156 123.495 96.6356 122.591 97.3489L112.895 105.004L94.8552 116.643L83.7984 121.88L72.1598 125.954V125.954C69.4517 126.727 66.6693 127.212 63.8591 127.399L59.3572 127.699H58.9031C55.337 127.699 51.7816 127.309 48.3005 126.535V126.535V126.535C44.8262 125.763 41.4776 124.507 38.3531 122.802L36.6618 121.88L35.2378 120.883C32.3192 118.84 29.6694 116.438 27.3509 113.733V113.733V113.733C24.6496 110.26 22.4673 106.412 20.8725 102.312L19.2039 98.0207L23.8335 105.596C25.0104 107.522 26.4116 109.302 28.0075 110.898V110.898C29.1197 112.01 30.3219 113.029 31.6018 113.943L33.7522 115.479L35.5869 116.625C37.4619 117.797 39.4579 118.763 41.5402 119.507V119.507C44.8585 120.692 48.3558 121.298 51.8794 121.298H54.7018L57.356 121.003C62.5512 120.426 67.659 119.231 72.5715 117.445V117.445C76.1697 116.137 79.6468 114.517 82.9632 112.603L93.1094 106.75L118.787 87.3488C119.122 87.0957 119.394 86.7686 119.582 86.3931V86.3931C120.106 85.344 119.901 84.0768 119.071 83.2473L116.387 80.5627Z" fill="#A8C7FF"/>
<path d="M19.4236 52.7954C25.3189 43.3389 33.2609 35.3257 42.6643 29.3461C52.0677 23.3665 62.693 19.5729 73.7572 18.2449C84.8214 16.9169 96.0426 18.0884 106.594 21.6729C117.145 25.2574 126.758 31.1637 134.724 38.9566C142.689 46.7494 148.805 56.2302 152.62 66.7004C156.435 77.1706 157.852 88.3634 156.767 99.4541C155.682 110.545 152.123 121.251 146.351 130.783C140.579 140.315 132.742 148.431 123.417 154.532C132.164 148.809 138.155 137.336 143.57 128.394C148.984 119.452 151.16 109.409 152.177 99.0051C153.195 88.6011 150.702 78.1013 147.123 68.2793C143.544 58.4574 138.971 50.7274 131.498 43.4171C124.026 36.1067 115.009 29.4023 105.11 26.0397C95.2124 22.6771 84.686 20.4143 74.3068 21.6601C63.9276 22.9059 53.9602 25.3007 45.139 30.91C36.3178 36.5194 24.9539 43.9244 19.4236 52.7954Z" fill="#A8C7FF"/>
<path d="M124.534 153.305C109.78 163.613 88.8106 169.576 70.9639 167.245C53.1173 164.915 36.7857 155.999 25.1739 142.248C13.5621 128.497 7.5084 110.902 8.20066 92.9177C8.89292 74.9328 16.2812 57.8559 28.9157 45.0378C17.2235 56.8999 13.0555 76.4812 12.4148 93.1247C11.7742 109.768 18.5403 126.05 29.286 138.776C40.0317 151.502 55.1452 160.916 71.6608 163.073C88.1763 165.229 110.881 162.844 124.534 153.305Z" fill="#00009B"/>
<path d="M141.382 140.798C135.391 150.094 127.464 157.986 118.141 163.936C108.819 169.886 98.3221 173.752 87.3678 175.272C76.4135 176.791 65.2603 175.927 54.6707 172.739C44.081 169.551 34.3047 164.113 26.0099 156.799C17.7151 149.484 11.0976 140.465 6.6096 130.358C2.12161 120.25 -0.130955 109.293 0.00588085 98.2343C0.142717 87.176 2.66573 76.2776 7.40245 66.2842C12.1392 56.2908 18.9779 47.438 27.4511 40.3311C19.6623 46.864 13.8717 59.7555 9.51758 68.9417C5.16347 78.1279 4.00812 88.146 3.88233 98.3111C3.75655 108.476 8.1549 118.549 12.2804 127.84C16.4058 137.131 22.4889 145.422 30.1137 152.145C37.7384 158.869 46.7251 163.867 56.4594 166.797C66.1936 169.728 77.6098 171.686 87.6793 170.29C97.7487 168.893 107.398 167.666 115.967 162.197C124.536 156.728 135.875 149.343 141.382 140.798Z" fill="#A8C7FF"/>
<path d="M74.4027 24.3913L80.0846 32.4656C80.1673 32.5831 80.3502 32.5462 80.3809 32.4058V32.4058C80.4523 32.0786 80.4225 31.7375 80.2954 31.4276L79.0641 28.4245C78.6918 27.5166 78.2102 26.6574 77.6299 25.8661L76.1633 23.8661L75.7908 23.4355C74.9245 22.4341 74.6352 21.0569 75.0253 19.7915L75.2098 19.1931C75.5289 18.1582 75.2309 17.032 74.4417 16.2903V16.2903C74.066 15.9371 73.601 15.6931 73.0969 15.5844L71.0341 15.1396C69.5885 14.8279 68.2258 14.2124 67.0362 13.334L63.9121 11.0271L63.1743 10.5411C62.1061 9.83749 60.9166 9.33821 59.6663 9.06861L58.0858 8.72782C57.0735 8.50955 56.0188 8.603 55.0607 8.99586V8.99586V8.99586C54.6016 9.1841 54.4908 9.78399 54.8524 10.1238L54.8989 10.1675C54.973 10.2372 55.0638 10.2866 55.1626 10.3111L55.5601 10.4095C55.9913 10.5164 56.035 11.1122 55.6239 11.2807V11.2807C55.3146 11.4076 55.2399 11.8118 55.4835 12.0408L55.7743 12.314C55.8537 12.3887 55.9492 12.4442 56.0533 12.4764L57.8094 13.0193C58.1492 13.1244 58.2756 13.5394 58.0521 13.8161V13.8161C57.8866 14.0208 57.907 14.3185 58.0988 14.4988L58.4449 14.824C58.6044 14.9739 58.8081 15.0683 59.0256 15.0929L59.6689 15.166C59.8174 15.1828 59.967 15.1884 60.1164 15.1827L60.4821 15.1687C61.2129 15.1408 61.944 15.2158 62.6539 15.3916L63.4962 15.6003V15.6003C64.7645 15.9145 65.9805 16.411 67.1062 17.0744L69.185 18.2994V18.2994C70.5701 18.9566 71.7063 20.0431 72.4248 21.3974L72.4949 21.5297L74.4027 24.3913Z" fill="#00009B"/>
<path d="M59.7023 5.71887C59.0312 5.74454 58.5902 6.42996 58.845 7.05134L58.8621 7.09311C58.9405 7.28432 59.0763 7.44648 59.2508 7.5572L64.4018 10.8256L65.3138 11.5655C66.4184 12.4617 67.6261 13.2227 68.9112 13.8325V13.8325C69.9891 14.3439 71.1155 14.746 72.2735 15.0329L72.4446 15.0752L73.646 15.2116V15.2116C74.1865 15.2729 74.5951 14.7325 74.3887 14.2292L74.1851 13.7326L73.5228 12.1174V12.1174C73.0895 11.0608 72.9546 9.90558 73.1326 8.7776L73.1788 8.48469L73.4575 6.71864C73.4834 6.55424 73.4637 6.38588 73.4006 6.23189V6.23189C73.21 5.76717 72.6789 5.54492 72.2141 5.73546L72.0929 5.78517C71.7748 5.91558 71.5417 6.19466 71.47 6.53085L70.9967 8.75043L70.9787 8.79999C70.6636 9.66445 69.8568 10.2524 68.9374 10.2875V10.2875C68.8232 10.2919 68.7089 10.2876 68.5954 10.2747L68.3902 10.2515C67.8435 10.1894 67.3108 10.0374 66.8137 9.80151L64.7201 8.8082L60.2709 5.87753C60.1026 5.76664 59.9037 5.71117 59.7023 5.71887V5.71887Z" fill="#00009B"/>
<path d="M80.3074 23.5333L81.627 24.8528C82.2947 25.5206 82.8505 26.2917 83.2728 27.1364V27.1364C83.6221 27.8349 83.8766 28.5768 84.0298 29.3426L84.381 31.0985V31.0985C84.381 31.5522 83.8466 31.7947 83.5051 31.4959L81.2465 29.5196C80.2467 28.6448 79.4683 27.5458 78.9749 26.3124V26.3124C78.7006 25.6265 78.3372 24.9798 77.894 24.3889L76.9101 23.077C76.8473 22.9934 76.7787 22.9143 76.7048 22.8403L75.8389 21.9744C75.7176 21.8532 75.6394 21.6955 75.6163 21.5256V21.5256C75.5213 20.8292 76.3194 20.3689 76.8747 20.7997L77.3978 21.2056L80.3074 23.5333Z" fill="#00009B"/>
</svg>
