<svg width="30" height="18" viewBox="0 0 30 18" fill="none" xmlns="http://www.w3.org/2000/svg">
<path d="M0.587493 3.64385C-0.129987 2.31139 0.835084 0.695652 2.34843 0.695652H4.13688C4.83487 0.695652 5.48237 1.05954 5.84528 1.65576L9.22009 7.20008C9.66248 7.92687 10.6927 7.99287 11.2242 7.32847V7.32847C11.4156 7.08922 11.5104 6.78696 11.4901 6.48125L11.2461 2.82211C11.2028 2.17242 10.7564 1.61983 10.1303 1.44095V1.44095C9.66484 1.30797 9.62404 0.66423 10.069 0.473545L10.2087 0.413656C10.8455 0.14073 11.5312 0 12.224 0H15.1758C16.2451 0 17.1252 0.841031 17.1737 1.90918L17.4172 7.26518C17.4283 7.50847 17.5545 7.73197 17.7571 7.86706V7.86706C18.14 8.12234 18.6601 7.98424 18.8659 7.57261L21.8725 1.55925C22.1352 1.03391 22.6822 0.712079 23.269 0.737592L27.1259 0.905286C28.598 0.969288 29.4978 2.54904 28.802 3.84784L25.087 10.7826L27.8142 13.6702C29.0188 14.9457 28.1145 17.0435 26.3601 17.0435H25.5457C24.1265 17.0435 22.7534 16.5405 21.67 15.6238L19.6906 13.9489C19.1737 13.5115 18.4356 13.4517 17.855 13.8001V13.8001C17.3785 14.0859 17.087 14.6009 17.087 15.1565V15.7575C17.087 16.8123 16.1665 17.6308 15.1189 17.5076L13.3678 17.3016C11.9201 17.1313 10.5216 16.6707 9.25593 15.9475V15.9475C7.32696 14.8452 5.74595 13.2239 4.69265 11.2677L0.587493 3.64385Z" fill="#5D5DF3"/>
</svg>
