<svg width="17" height="19" viewBox="0 0 17 19" fill="none" xmlns="http://www.w3.org/2000/svg">
<path d="M3.92064 15.7367C5.59646 16.9102 7.65262 17.4098 9.68008 17.1362C11.7075 16.8627 13.5577 15.8359 14.8626 14.2602C16.1674 12.6845 16.8313 10.6753 16.7221 8.63238C16.613 6.58945 15.7388 4.66248 14.2735 3.23479C12.8081 1.80711 10.8591 0.983339 8.81398 0.927365C6.76891 0.87139 4.7777 1.58731 3.23647 2.93271C1.69525 4.2781 0.716953 6.15437 0.496207 8.18827C0.275461 10.2222 0.82844 12.2646 2.04514 13.9094L3.42386 12.8894C2.46342 11.5911 2.0269 9.97884 2.20116 8.37331C2.37541 6.76779 3.14766 5.2867 4.36427 4.22467C5.58089 3.16263 7.15271 2.5975 8.76706 2.64169C10.3814 2.68587 11.92 3.33614 13.0767 4.46313C14.2334 5.59012 14.9234 7.11124 15.0096 8.72389C15.0958 10.3365 14.5717 11.9225 13.5417 13.1664C12.5117 14.4102 11.0512 15.2207 9.45074 15.4367C7.8503 15.6526 6.2272 15.2582 4.90434 14.3319L3.92064 15.7367Z" fill="#5D5DF3"/>
<path d="M1.77172 12.3113L3.47845 12.8541L2.72101 15.1265L4.99334 14.369L4.99334 16.0733L1.94644 17.1058L1.09591 17.3244C0.635625 17.4427 0.217579 17.0231 0.337704 16.5632V16.5632L1.77172 12.3113Z" fill="#5D5DF3"/>
<path d="M4.63044 6.3158C4.8591 5.78228 5.32403 5.38633 5.88715 5.24555L5.91322 5.23903C6.26089 5.15211 6.62228 5.31833 6.78255 5.63887L7.37953 6.83283C7.54333 7.16043 7.51903 7.55068 7.31586 7.85544V7.85544C7.06222 8.2359 7.09258 8.73864 7.39016 9.08583L7.80557 9.57047C7.94947 9.73835 8.1221 9.87928 8.31538 9.98666L8.80185 10.2569C9.33879 10.5552 10.012 10.4296 10.4052 9.95773V9.95773C10.5615 9.77013 10.8287 9.71921 11.0431 9.83614L12.1996 10.467C12.5433 10.6545 12.7572 11.0147 12.7572 11.4062V11.4062C12.7572 11.7237 12.6161 12.0248 12.3722 12.2281L12.0376 12.5069C11.7648 12.7343 11.4364 12.8849 11.0861 12.9432L11.0091 12.9561C10.6642 13.0135 10.3107 12.9912 9.97572 12.8907L9.30657 12.69C8.8323 12.5477 8.3818 12.3357 7.96981 12.0611L7.29892 11.6138C7.02496 11.4312 6.76971 11.2219 6.53689 10.9891L6.02855 10.4808C5.59462 10.0468 5.24427 9.53672 4.99503 8.97593L4.79491 8.52566C4.6753 8.25655 4.59351 7.97218 4.55187 7.68065L4.49893 7.31012C4.45076 6.97289 4.49625 6.62891 4.63044 6.3158V6.3158Z" fill="#5D5DF3"/>
</svg>
